<svg width="64" height="64" viewBox="0 0 64 64" fill="none" xmlns="http://www.w3.org/2000/svg">
<circle cx="32" cy="32" r="32" fill="#857DB0"/>
<path d="M43.9828 20.3959C41.0444 17.4595 37.1788 15.6328 33.0446 15.2268C28.9104 14.8209 24.7634 15.8609 21.31 18.1697C17.8566 20.4785 15.3105 23.9132 14.1055 27.8887C12.9006 31.8642 13.1112 36.1344 14.7016 39.972C16.292 43.8096 19.1637 46.977 22.8276 48.9347C26.4914 50.8924 30.7207 51.5193 34.7949 50.7085C38.8691 49.8976 42.5361 47.6993 45.1712 44.488C47.8063 41.2767 49.2465 37.2511 49.2464 33.097C49.2519 30.7371 48.7895 28.3996 47.886 26.2195C46.9825 24.0395 45.6559 22.0601 43.9828 20.3959Z" fill="#40507F"/>
<path d="M49.388 31.4729C49.0156 28.601 48.0423 25.8397 46.5313 23.3691C45.8567 22.2198 45.0239 21.1371 43.4914 21.0371L39.9434 20.8039C39.4339 20.7701 38.9228 20.8373 38.4394 21.0017C37.956 21.1661 37.5099 21.4245 37.1267 21.762C36.7436 22.0995 36.4309 22.5094 36.2068 22.9682C35.9827 23.427 35.8515 23.9255 35.8207 24.4352L35.6125 27.8999C35.557 28.8717 35.8686 29.8289 36.4857 30.5817C37.1028 31.3345 37.9802 31.828 38.944 31.9643L39.9434 32.1058C40.4066 32.1721 40.8456 32.3542 41.2197 32.6352C41.5938 32.9161 41.8911 33.2869 42.0839 33.7133L43.8662 39.2185C43.8612 39.2376 43.8612 39.2577 43.8662 39.2768C43.9639 39.5185 44.1304 39.7263 44.3451 39.8743C44.5597 40.0224 44.8131 40.1042 45.0738 40.1096C45.3256 40.1124 45.5729 40.0434 45.7868 39.9106C46.0006 39.7778 46.1723 39.5869 46.2815 39.3601C46.5879 38.8091 46.9448 38.2877 47.3476 37.8026C48.4969 36.3368 49.8878 34.5461 49.388 31.4729Z" fill="#F48462"/>
<path d="M29.4825 37.9359C29.6595 37.5796 29.7427 37.1839 29.7243 36.7864C29.7058 36.3889 29.5864 36.0027 29.3771 35.6642C29.1679 35.3257 28.8758 35.0462 28.5284 34.852C28.1811 34.6579 27.7899 34.5555 27.392 34.5545H25.5181C25.388 34.5562 25.2586 34.5365 25.135 34.4962L20.7375 33.0804C20.4027 32.9741 20.0484 32.9446 19.7006 32.9939C19.3529 33.0433 19.0208 33.1702 18.7288 33.3654C18.4368 33.5606 18.1925 33.819 18.014 34.1214C17.8355 34.4239 17.7273 34.7626 17.6975 35.1126L17.4393 38.2941C17.4067 38.698 17.4802 39.1034 17.6526 39.4701C17.825 39.8368 18.0903 40.152 18.4221 40.3846L20.4543 41.8254C20.6827 41.9844 20.8502 42.2165 20.929 42.4834L21.637 44.7987C21.81 45.3574 22.1838 45.8321 22.6864 46.1313L26.3676 48.2967C26.5819 48.4235 26.8265 48.4897 27.0755 48.4883C27.3064 48.4869 27.5333 48.4278 27.7354 48.3162C27.9376 48.2046 28.1085 48.0442 28.2327 47.8496C28.357 47.655 28.4305 47.4324 28.4466 47.2021C28.4627 46.9717 28.4208 46.7411 28.3248 46.5311L27.0755 43.7826C26.9955 43.6134 26.9539 43.4285 26.9539 43.2413C26.9539 43.054 26.9955 42.8692 27.0755 42.6999L29.4825 37.9359Z" fill="#F48462"/>
<path d="M26.6013 20.196C25.7684 19.4214 24.8106 19.9878 24.1027 20.4459C23.6618 20.7779 23.1425 20.9903 22.5952 21.0622H22.4953C22.6969 20.7477 22.9195 20.4472 23.1616 20.1627L23.4281 19.8379C23.9694 19.1466 24.4525 17.8473 23.9361 17.2144C23.7938 17.0486 23.5956 16.941 23.3791 16.9118C23.1626 16.8826 22.9429 16.934 22.7618 17.0561C21.9289 17.4975 16.9318 20.7207 14.833 25.443C13.9168 27.4669 14.3332 29.649 16.0323 31.7478C16.8286 32.7128 17.7631 33.5547 18.8057 34.2464C18.8893 34.3025 18.9882 34.3316 19.0889 34.3296C19.1607 34.3296 19.2318 34.3148 19.2977 34.2861C19.3636 34.2575 19.4229 34.2156 19.472 34.1631C19.5582 34.075 19.6118 33.9601 19.624 33.8375C19.6361 33.7148 19.606 33.5917 19.5386 33.4885C19.3724 33.2885 19.2714 33.0425 19.2491 32.7834C19.2267 32.5244 19.2842 32.2647 19.4137 32.0393C19.6006 31.6033 19.6861 31.1305 19.6635 30.6567C19.6357 30.3076 19.5305 29.969 19.3554 29.6656C19.9967 30.0737 20.563 30.3736 21.0211 30.232C21.6541 30.0487 21.9539 29.1659 22.3787 27.9499C22.5837 27.2557 22.8629 26.5855 23.2115 25.9511C23.5613 25.4264 23.9111 25.3931 24.5358 25.3431C25.021 25.3284 25.5001 25.2297 25.9516 25.0516C26.3322 24.8469 26.6562 24.5512 26.8945 24.1907C27.1329 23.8303 27.2782 23.4164 27.3175 22.9861C27.4294 22.4976 27.4228 21.9895 27.2982 21.5041C27.1736 21.0187 26.9347 20.5702 26.6013 20.196Z" fill="#F48462"/>
<path d="M44.2411 27.7501C44.0989 27.7501 43.9625 27.6943 43.8612 27.5945C43.7599 27.4948 43.7019 27.3592 43.6997 27.2171V13.8913C43.716 13.7604 43.7796 13.6399 43.8786 13.5526C43.9775 13.4652 44.1049 13.417 44.2369 13.417C44.3689 13.417 44.4963 13.4652 44.5952 13.5526C44.6941 13.6399 44.7577 13.7604 44.7741 13.8913V27.2171C44.7741 27.2871 44.7603 27.3564 44.7335 27.4211C44.7067 27.4858 44.6675 27.5445 44.618 27.594C44.5685 27.6435 44.5097 27.6828 44.445 27.7095C44.3804 27.7363 44.3111 27.7501 44.2411 27.7501Z" fill="white"/>
<path d="M49.7046 16.3066L51.6119 14.2327C51.6838 14.1568 51.7317 14.0614 51.7498 13.9585C51.7679 13.8555 51.7553 13.7494 51.7136 13.6536C51.6718 13.5577 51.6029 13.4762 51.5152 13.4193C51.4275 13.3623 51.325 13.3324 51.2204 13.3333H44.2411C44.0989 13.3333 43.9625 13.3891 43.8612 13.4889C43.7599 13.5886 43.7019 13.7242 43.6997 13.8663V18.7469C43.7019 18.889 43.7599 19.0245 43.8612 19.1243C43.9625 19.224 44.0989 19.2799 44.2411 19.2799H51.2204C51.325 19.2808 51.4275 19.2508 51.5152 19.1939C51.6029 19.1369 51.6718 19.0554 51.7136 18.9596C51.7553 18.8637 51.7679 18.7577 51.7498 18.6547C51.7317 18.5517 51.6838 18.4563 51.6119 18.3804L49.7046 16.3066Z" fill="#7181B0"/>
<path d="M26.8343 40.3429C26.7393 40.3421 26.6462 40.3162 26.5643 40.268C26.4824 40.2197 26.4147 40.1508 26.3679 40.0681L17.5063 24.352C17.4654 24.275 17.4441 24.1892 17.4441 24.1021C17.4441 24.015 17.4654 23.9292 17.5063 23.8523L18.2725 22.3115C18.3297 22.2053 18.4202 22.1209 18.53 22.0713C18.6399 22.0216 18.763 22.0094 18.8805 22.0366L42.3505 27.6668C42.4211 27.6838 42.4876 27.7146 42.5462 27.7575C42.6049 27.8004 42.6544 27.8545 42.692 27.9166L44.3577 30.7733C44.3954 30.8366 44.42 30.9068 44.43 30.9798C44.44 31.0528 44.4352 31.127 44.416 31.1981C44.3949 31.2682 44.3597 31.3332 44.3124 31.3891C44.2651 31.445 44.2068 31.4906 44.1412 31.5229L29.4828 39.1602L27.1175 40.2846C27.0299 40.3286 26.9322 40.3487 26.8343 40.3429ZM18.589 24.0771L27.0592 39.1103L28.9581 38.2025L43.1167 30.8316L41.8425 28.6579L19.0137 23.1777L18.589 24.0771Z" fill="white"/>
<path d="M16.8315 19.9128C16.311 19.9128 15.8022 20.0672 15.3694 20.3564C14.9366 20.6456 14.5992 21.0566 14.4 21.5375C14.2008 22.0184 14.1487 22.5476 14.2503 23.0581C14.3518 23.5687 14.6025 24.0376 14.9706 24.4057C15.3386 24.7737 15.8076 25.0244 16.3181 25.1259C16.8286 25.2275 17.3578 25.1754 17.8387 24.9762C18.3196 24.777 18.7306 24.4397 19.0198 24.0069C19.309 23.574 19.4634 23.0652 19.4634 22.5447C19.4612 21.8474 19.1832 21.1792 18.6901 20.6861C18.197 20.193 17.5289 19.915 16.8315 19.9128Z" fill="#FFC021"/>
<path d="M43.8914 26.5007C43.3708 26.5007 42.862 26.6551 42.4292 26.9443C41.9964 27.2335 41.6591 27.6445 41.4599 28.1254C41.2607 28.6063 41.2085 29.1355 41.3101 29.646C41.4116 30.1565 41.6623 30.6255 42.0304 30.9936C42.3984 31.3616 42.8674 31.6123 43.3779 31.7138C43.8884 31.8154 44.4176 31.7633 44.8985 31.5641C45.3794 31.3649 45.7905 31.0275 46.0796 30.5947C46.3688 30.1619 46.5232 29.6531 46.5232 29.1326C46.5232 28.787 46.4551 28.4447 46.3229 28.1254C46.1906 27.8061 45.9967 27.516 45.7523 27.2716C45.508 27.0272 45.2178 26.8333 44.8985 26.7011C44.5792 26.5688 44.237 26.5007 43.8914 26.5007Z" fill="#FFC021"/>
<path d="M27.6505 37.178C27.13 37.178 26.6212 37.3323 26.1883 37.6215C25.7555 37.9107 25.4182 38.3218 25.219 38.8027C25.0198 39.2836 24.9677 39.8127 25.0692 40.3233C25.1708 40.8338 25.4215 41.3027 25.7895 41.6708C26.1576 42.0389 26.6265 42.2895 27.1371 42.3911C27.6476 42.4926 28.1768 42.4405 28.6577 42.2413C29.1386 42.0421 29.5496 41.7048 29.8388 41.272C30.128 40.8392 30.2823 40.3303 30.2823 39.8098C30.2823 39.4642 30.2143 39.122 30.082 38.8027C29.9497 38.4834 29.7559 38.1932 29.5115 37.9488C29.2671 37.7044 28.977 37.5106 28.6577 37.3783C28.3384 37.2461 27.9961 37.178 27.6505 37.178Z" fill="#FFC021"/>
</svg>
