<svg width="64" height="64" viewBox="0 0 64 64" fill="none" xmlns="http://www.w3.org/2000/svg">
<path d="M64 31.8701C64 49.4712 49.6728 63.7386 32 63.7386C14.3272 63.7386 0 49.4712 0 31.8701C0 14.2691 14.3272 0 32 0C49.6728 0 64 14.2691 64 31.8701Z" fill="#857DB0" fill-opacity="0.5"/>
<mask id="mask0_51_443" style="mask-type:luminance" maskUnits="userSpaceOnUse" x="36" y="3" width="13" height="12">
<path d="M36.7876 3.33984H48.8856V14.1423H36.7876V3.33984Z" fill="white"/>
</mask>
<g mask="url(#mask0_51_443)">
<mask id="mask1_51_443" style="mask-type:luminance" maskUnits="userSpaceOnUse" x="0" y="0" width="64" height="64">
<path d="M64 31.8701C64 49.4712 49.6728 63.7386 32 63.7386C14.3272 63.7386 0 49.4712 0 31.8701C0 14.2691 14.3272 0 32 0C49.6728 0 64 14.2691 64 31.8701Z" fill="white"/>
</mask>
<g mask="url(#mask1_51_443)">
<path d="M36.9766 11.0914C35.7642 4.93064 42.5937 1.18808 46.6921 5.60092C50.7889 10.0138 47.7334 13.3246 43.591 13.732C39.4503 14.1393 38.0244 10.9356 38.0244 10.9356L36.9766 11.0914Z" fill="#D76A40"/>
</g>
</g>
<mask id="mask2_51_443" style="mask-type:luminance" maskUnits="userSpaceOnUse" x="33" y="9" width="11" height="10">
<path d="M33.8674 9.15674H43.8796V18.7127H33.8674V9.15674Z" fill="white"/>
</mask>
<g mask="url(#mask2_51_443)">
<mask id="mask3_51_443" style="mask-type:luminance" maskUnits="userSpaceOnUse" x="0" y="0" width="64" height="64">
<path d="M64 31.8701C64 49.4712 49.6728 63.7386 32 63.7386C14.3272 63.7386 0 49.4712 0 31.8701C0 14.2691 14.3272 0 32 0C49.6728 0 64 14.2691 64 31.8701Z" fill="white"/>
</mask>
<g mask="url(#mask3_51_443)">
<path d="M34.011 10.8513C35.1517 7.34891 41.2056 10.1988 42.6608 12.5489C44.1176 14.8989 43.443 18.3169 43.443 18.3169L34.011 10.8513Z" fill="#5B4852"/>
</g>
</g>
<mask id="mask4_51_443" style="mask-type:luminance" maskUnits="userSpaceOnUse" x="18" y="9" width="29" height="25">
<path d="M18.0149 9.15674H46.3826V33.67H18.0149V9.15674Z" fill="white"/>
</mask>
<g mask="url(#mask4_51_443)">
<mask id="mask5_51_443" style="mask-type:luminance" maskUnits="userSpaceOnUse" x="0" y="0" width="64" height="64">
<path d="M64 31.8701C64 49.4712 49.6728 63.7386 32 63.7386C14.3272 63.7386 0 49.4712 0 31.8701C0 14.2691 14.3272 0 32 0C49.6728 0 64 14.2691 64 31.8701Z" fill="white"/>
</mask>
<g mask="url(#mask5_51_443)">
<path d="M18.2968 26.2353C16.4652 13.771 25.2225 9.24451 32.8392 9.41167C40.4542 9.58046 44.0556 15.6146 44.0556 15.6146C44.0556 15.6146 49.5049 23.6678 42.8334 31.0571C36.1619 38.4465 18.2968 26.2353 18.2968 26.2353Z" fill="#D76A40"/>
</g>
</g>
<mask id="mask6_51_443" style="mask-type:luminance" maskUnits="userSpaceOnUse" x="6" y="42" width="52" height="22">
<path d="M6.75122 42.395H57.229V63.9999H6.75122V42.395Z" fill="white"/>
</mask>
<g mask="url(#mask6_51_443)">
<mask id="mask7_51_443" style="mask-type:luminance" maskUnits="userSpaceOnUse" x="0" y="0" width="64" height="64">
<path d="M64 31.8701C64 49.4712 49.6728 63.7386 32 63.7386C14.3272 63.7386 0 49.4712 0 31.8701C0 14.2691 14.3272 0 32 0C49.6728 0 64 14.2691 64 31.8701Z" fill="white"/>
</mask>
<g mask="url(#mask7_51_443)">
<path d="M56.9229 63.7387H7.07739C7.07739 63.7387 9.4028 54.8026 12.7092 49.5085C16.0156 44.2112 28.156 42.4097 28.156 42.4097L32.0001 43.0507L35.8443 42.4097C35.8443 42.4097 47.9879 44.2112 51.296 49.5085C54.6024 54.8026 56.9229 63.7387 56.9229 63.7387Z" fill="#EEB7C4"/>
</g>
</g>
<mask id="mask8_51_443" style="mask-type:luminance" maskUnits="userSpaceOnUse" x="18" y="41" width="28" height="12">
<path d="M18.4321 41.564H45.5483V52.7819H18.4321V41.564Z" fill="white"/>
</mask>
<g mask="url(#mask8_51_443)">
<mask id="mask9_51_443" style="mask-type:luminance" maskUnits="userSpaceOnUse" x="0" y="0" width="64" height="64">
<path d="M64 31.8701C64 49.4712 49.6728 63.7386 32 63.7386C14.3272 63.7386 0 49.4712 0 31.8701C0 14.2691 14.3272 0 32 0C49.6728 0 64 14.2691 64 31.8701Z" fill="white"/>
</mask>
<g mask="url(#mask9_51_443)">
<path d="M18.6506 45.1071C23.3357 54.7215 37.5684 55.6222 45.3529 45.1071C45.3529 45.1071 34.0029 37.8833 18.6506 45.1071Z" fill="white"/>
</g>
</g>
<mask id="mask10_51_443" style="mask-type:luminance" maskUnits="userSpaceOnUse" x="28" y="36" width="8" height="12">
<path d="M28.0271 36.1631H35.9534V47.381H28.0271V36.1631Z" fill="white"/>
</mask>
<g mask="url(#mask10_51_443)">
<mask id="mask11_51_443" style="mask-type:luminance" maskUnits="userSpaceOnUse" x="0" y="0" width="64" height="64">
<path d="M64 31.8701C64 49.4712 49.6728 63.7386 32 63.7386C14.3272 63.7386 0 49.4712 0 31.8701C0 14.2691 14.3272 0 32 0C49.6728 0 64 14.2691 64 31.8701Z" fill="white"/>
</mask>
<g mask="url(#mask11_51_443)">
<path d="M31.9071 47.1391C29.8212 47.1391 28.1313 45.4545 28.1313 43.3787V36.1938H35.6844V43.3787C35.6844 45.4545 33.9929 47.1391 31.9071 47.1391Z" fill="#F1B69A"/>
</g>
</g>
<mask id="mask12_51_443" style="mask-type:luminance" maskUnits="userSpaceOnUse" x="28" y="35" width="8" height="7">
<path d="M28.0271 35.332H35.9534V41.9797H28.0271V35.332Z" fill="white"/>
</mask>
<g mask="url(#mask12_51_443)">
<mask id="mask13_51_443" style="mask-type:luminance" maskUnits="userSpaceOnUse" x="0" y="0" width="64" height="64">
<path d="M64 31.8701C64 49.4712 49.6728 63.7386 32 63.7386C14.3272 63.7386 0 49.4712 0 31.8701C0 14.2691 14.3272 0 32 0C49.6728 0 64 14.2691 64 31.8701Z" fill="white"/>
</mask>
<g mask="url(#mask13_51_443)">
<path d="M35.6844 35.3613V39.7742C35.6844 39.7742 34.4166 41.97 31.9071 41.97C29.8913 41.97 28.1313 40.0663 28.1313 40.0663V35.3613H35.6844Z" fill="#150A08"/>
</g>
</g>
<mask id="mask14_51_443" style="mask-type:luminance" maskUnits="userSpaceOnUse" x="16" y="25" width="8" height="9">
<path d="M16.7634 25.7759H23.021V33.2545H16.7634V25.7759Z" fill="white"/>
</mask>
<g mask="url(#mask14_51_443)">
<mask id="mask15_51_443" style="mask-type:luminance" maskUnits="userSpaceOnUse" x="0" y="0" width="64" height="64">
<path d="M64 31.8701C64 49.4712 49.6728 63.7386 32 63.7386C14.3272 63.7386 0 49.4712 0 31.8701C0 14.2691 14.3272 0 32 0C49.6728 0 64 14.2691 64 31.8701Z" fill="white"/>
</mask>
<g mask="url(#mask15_51_443)">
<path d="M21.341 27.6388C19.2992 24.5503 16.9314 26.5352 16.9314 28.71C16.9314 31.8602 20.3617 34.5721 22.322 32.3113C24.2824 30.0506 21.341 27.6388 21.341 27.6388Z" fill="#F1B69A"/>
</g>
</g>
<mask id="mask16_51_443" style="mask-type:luminance" maskUnits="userSpaceOnUse" x="18" y="27" width="4" height="4">
<path d="M18.0149 27.438H21.3523V30.3463H18.0149V27.438Z" fill="white"/>
</mask>
<g mask="url(#mask16_51_443)">
<mask id="mask17_51_443" style="mask-type:luminance" maskUnits="userSpaceOnUse" x="0" y="0" width="64" height="64">
<path d="M64 31.8701C64 49.4712 49.6728 63.7386 32 63.7386C14.3272 63.7386 0 49.4712 0 31.8701C0 14.2691 14.3272 0 32 0C49.6728 0 64 14.2691 64 31.8701Z" fill="white"/>
</mask>
<g mask="url(#mask17_51_443)">
<path d="M21.0785 28.97C20.8602 28.5626 20.6223 28.2721 20.3697 28.0806C20.1171 27.8891 19.8466 27.7982 19.5891 27.7998C19.1801 27.7998 18.8281 28.0157 18.5837 28.3013C18.3376 28.5902 18.1828 28.9538 18.1812 29.3141C18.1812 29.5234 18.2382 29.736 18.3734 29.9113C18.4419 30.0022 18.5739 30.02 18.6651 29.9503C18.7564 29.8805 18.7743 29.7506 18.7042 29.6597C18.6342 29.5689 18.6 29.452 18.5983 29.3141C18.5967 29.0787 18.7124 28.7898 18.8998 28.5724C19.0888 28.3533 19.3365 28.2137 19.5891 28.2153C19.7504 28.2153 19.9248 28.2672 20.1171 28.4117C20.3077 28.5561 20.5131 28.7963 20.7119 29.1647C20.7657 29.267 20.8911 29.3043 20.9938 29.2508C21.0948 29.1956 21.1339 29.0706 21.0785 28.97Z" fill="#E07E61"/>
</g>
</g>
<mask id="mask18_51_443" style="mask-type:luminance" maskUnits="userSpaceOnUse" x="39" y="25" width="8" height="9">
<path d="M39.708 25.7759H46.3828V33.2545H39.708V25.7759Z" fill="white"/>
</mask>
<g mask="url(#mask18_51_443)">
<mask id="mask19_51_443" style="mask-type:luminance" maskUnits="userSpaceOnUse" x="0" y="0" width="64" height="64">
<path d="M64 31.8701C64 49.4712 49.6728 63.7386 32 63.7386C14.3272 63.7386 0 49.4712 0 31.8701C0 14.2691 14.3272 0 32 0C49.6728 0 64 14.2691 64 31.8701Z" fill="white"/>
</mask>
<g mask="url(#mask19_51_443)">
<path d="M41.7417 27.6388C43.7835 24.5503 46.1513 26.5352 46.1513 28.71C46.1513 31.8602 42.721 34.5721 40.7607 32.3113C38.8003 30.0506 41.7417 27.6388 41.7417 27.6388Z" fill="#F1B69A"/>
</g>
</g>
<mask id="mask20_51_443" style="mask-type:luminance" maskUnits="userSpaceOnUse" x="41" y="27" width="5" height="4">
<path d="M41.7937 27.438H45.1311V30.3463H41.7937V27.438Z" fill="white"/>
</mask>
<g mask="url(#mask20_51_443)">
<mask id="mask21_51_443" style="mask-type:luminance" maskUnits="userSpaceOnUse" x="0" y="0" width="64" height="64">
<path d="M64 31.8701C64 49.4712 49.6728 63.7386 32 63.7386C14.3272 63.7386 0 49.4712 0 31.8701C0 14.2691 14.3272 0 32 0C49.6728 0 64 14.2691 64 31.8701Z" fill="white"/>
</mask>
<g mask="url(#mask21_51_443)">
<path d="M42.3723 29.1647C42.5694 28.7963 42.7748 28.5561 42.9654 28.4117C43.1577 28.2672 43.3321 28.2153 43.4934 28.2153C43.746 28.2137 43.9953 28.3533 44.1827 28.5724C44.3717 28.7898 44.4858 29.0787 44.4842 29.3141C44.4826 29.452 44.4483 29.5689 44.3783 29.6597C44.3082 29.7506 44.3261 29.8805 44.4174 29.9503C44.5103 30.02 44.6406 30.0022 44.7107 29.9113C44.8443 29.736 44.9014 29.5234 44.9014 29.3141C44.8997 28.9538 44.7449 28.5902 44.5005 28.3013C44.2544 28.0157 43.9024 27.7998 43.4934 27.7998C43.2359 27.7982 42.9654 27.8891 42.7128 28.0806C42.4603 28.2721 42.2223 28.5626 42.004 28.97C41.9502 29.0706 41.9877 29.1956 42.0903 29.2508C42.1914 29.3043 42.3169 29.267 42.3723 29.1647Z" fill="#E07E61"/>
</g>
</g>
<mask id="mask22_51_443" style="mask-type:luminance" maskUnits="userSpaceOnUse" x="20" y="16" width="24" height="24">
<path d="M20.1008 16.2197H43.0453V39.902H20.1008V16.2197Z" fill="white"/>
</mask>
<g mask="url(#mask22_51_443)">
<mask id="mask23_51_443" style="mask-type:luminance" maskUnits="userSpaceOnUse" x="0" y="0" width="64" height="64">
<path d="M64 31.8701C64 49.4712 49.6728 63.7386 32 63.7386C14.3272 63.7386 0 49.4712 0 31.8701C0 14.2691 14.3272 0 32 0C49.6728 0 64 14.2691 64 31.8701Z" fill="white"/>
</mask>
<g mask="url(#mask23_51_443)">
<path d="M31.5323 39.7741C23.4626 39.7709 18.6912 30.989 20.5766 21.9719C22.1312 14.5403 40.9512 14.5436 42.5042 21.9719C44.3912 30.989 39.6052 39.7758 31.5323 39.7741Z" fill="#F1B69A"/>
</g>
</g>
<mask id="mask24_51_443" style="mask-type:luminance" maskUnits="userSpaceOnUse" x="30" y="30" width="4" height="3">
<path d="M30.113 30.3462H33.4504V32.0081H30.113V30.3462Z" fill="white"/>
</mask>
<g mask="url(#mask24_51_443)">
<mask id="mask25_51_443" style="mask-type:luminance" maskUnits="userSpaceOnUse" x="0" y="0" width="64" height="64">
<path d="M64 31.8701C64 49.4712 49.6728 63.7386 32 63.7386C14.3272 63.7386 0 49.4712 0 31.8701C0 14.2691 14.3272 0 32 0C49.6728 0 64 14.2691 64 31.8701Z" fill="white"/>
</mask>
<g mask="url(#mask25_51_443)">
<path d="M31.8304 31.6531C31.4524 31.6531 30.46 30.7475 30.46 30.7475C30.6213 30.8237 30.8217 30.8529 31.0417 30.8529C31.3676 30.8529 31.7327 30.788 32.07 30.7247C32.4073 30.6614 32.7137 30.5981 32.9239 30.5981C33.0885 30.5981 33.1911 30.6371 33.2009 30.7475C33.2384 31.2279 32.2069 31.6531 31.8304 31.6531Z" fill="#EA9C7B"/>
</g>
</g>
<mask id="mask26_51_443" style="mask-type:luminance" maskUnits="userSpaceOnUse" x="29" y="27" width="3" height="6">
<path d="M29.6958 27.8535H31.7817V32.0083H29.6958V27.8535Z" fill="white"/>
</mask>
<g mask="url(#mask26_51_443)">
<mask id="mask27_51_443" style="mask-type:luminance" maskUnits="userSpaceOnUse" x="0" y="0" width="64" height="64">
<path d="M64 31.8701C64 49.4712 49.6728 63.7386 32 63.7386C14.3272 63.7386 0 49.4712 0 31.8701C0 14.2691 14.3272 0 32 0C49.6728 0 64 14.2691 64 31.8701Z" fill="white"/>
</mask>
<g mask="url(#mask27_51_443)">
<path d="M30.2971 28.2365C30.0021 28.8711 29.8799 29.3953 29.8799 29.8319C29.8766 30.5152 30.1944 30.9761 30.5562 31.2374C30.9179 31.5003 31.309 31.5896 31.5144 31.6172C31.6284 31.6334 31.7327 31.5522 31.7474 31.4386C31.7621 31.325 31.6822 31.2212 31.5681 31.2066C31.4166 31.1871 31.0793 31.1059 30.8039 30.9031C30.5285 30.6953 30.3003 30.3886 30.2971 29.8319C30.2971 29.4732 30.3997 29.0074 30.6768 28.4102C30.724 28.3063 30.6784 28.183 30.5741 28.1343C30.4698 28.0872 30.346 28.1327 30.2971 28.2365Z" fill="#E07E61"/>
</g>
</g>
<mask id="mask28_51_443" style="mask-type:luminance" maskUnits="userSpaceOnUse" x="24" y="20" width="5" height="3">
<path d="M24.2725 20.375H28.4442V22.8679H24.2725V20.375Z" fill="white"/>
</mask>
<g mask="url(#mask28_51_443)">
<mask id="mask29_51_443" style="mask-type:luminance" maskUnits="userSpaceOnUse" x="0" y="0" width="64" height="64">
<path d="M64 31.8701C64 49.4712 49.6728 63.7386 32 63.7386C14.3272 63.7386 0 49.4712 0 31.8701C0 14.2691 14.3272 0 32 0C49.6728 0 64 14.2691 64 31.8701Z" fill="white"/>
</mask>
<g mask="url(#mask29_51_443)">
<path d="M28.3498 21.4133C27.8463 20.2919 24.8918 20.8047 24.473 21.6032C24.0559 22.4017 25.4378 22.6273 26.4644 22.577C27.491 22.5267 28.6708 22.1275 28.3498 21.4133Z" fill="#D76A40"/>
</g>
</g>
<mask id="mask30_51_443" style="mask-type:luminance" maskUnits="userSpaceOnUse" x="34" y="20" width="5" height="3">
<path d="M34.2847 20.375H38.8736V22.8679H34.2847V20.375Z" fill="white"/>
</mask>
<g mask="url(#mask30_51_443)">
<mask id="mask31_51_443" style="mask-type:luminance" maskUnits="userSpaceOnUse" x="0" y="0" width="64" height="64">
<path d="M64 31.8701C64 49.4712 49.6728 63.7386 32 63.7386C14.3272 63.7386 0 49.4712 0 31.8701C0 14.2691 14.3272 0 32 0C49.6728 0 64 14.2691 64 31.8701Z" fill="white"/>
</mask>
<g mask="url(#mask31_51_443)">
<path d="M34.7327 21.4133C35.2362 20.2919 38.1923 20.8047 38.6094 21.6032C39.0266 22.4017 37.6447 22.6273 36.6181 22.577C35.5915 22.5267 34.4117 22.1275 34.7327 21.4133Z" fill="#D76A40"/>
</g>
</g>
<mask id="mask32_51_443" style="mask-type:luminance" maskUnits="userSpaceOnUse" x="25" y="24" width="4" height="3">
<path d="M25.9412 24.5293H28.027V26.6067H25.9412V24.5293Z" fill="white"/>
</mask>
<g mask="url(#mask32_51_443)">
<mask id="mask33_51_443" style="mask-type:luminance" maskUnits="userSpaceOnUse" x="0" y="0" width="64" height="64">
<path d="M64 31.8701C64 49.4712 49.6728 63.7386 32 63.7386C14.3272 63.7386 0 49.4712 0 31.8701C0 14.2691 14.3272 0 32 0C49.6728 0 64 14.2691 64 31.8701Z" fill="white"/>
</mask>
<g mask="url(#mask33_51_443)">
<path d="M26.2151 25.7369C26.2151 26.1833 26.5785 26.5452 27.0266 26.5452C27.4764 26.5452 27.8398 26.1833 27.8398 25.7369C27.8398 25.289 27.4764 24.9287 27.0266 24.9287C26.5785 24.9287 26.2151 25.289 26.2151 25.7369Z" fill="#150A08"/>
</g>
</g>
<mask id="mask34_51_443" style="mask-type:luminance" maskUnits="userSpaceOnUse" x="35" y="24" width="3" height="3">
<path d="M35.1191 24.5293H37.205V26.6067H35.1191V24.5293Z" fill="white"/>
</mask>
<g mask="url(#mask34_51_443)">
<mask id="mask35_51_443" style="mask-type:luminance" maskUnits="userSpaceOnUse" x="0" y="0" width="64" height="64">
<path d="M64 31.8701C64 49.4712 49.6728 63.7386 32 63.7386C14.3272 63.7386 0 49.4712 0 31.8701C0 14.2691 14.3272 0 32 0C49.6728 0 64 14.2691 64 31.8701Z" fill="white"/>
</mask>
<g mask="url(#mask35_51_443)">
<path d="M36.8674 25.7369C36.8674 26.1833 36.504 26.5452 36.0559 26.5452C35.6078 26.5452 35.2444 26.1833 35.2444 25.7369C35.2444 25.289 35.6078 24.9287 36.0559 24.9287C36.504 24.9287 36.8674 25.289 36.8674 25.7369Z" fill="#150A08"/>
</g>
</g>
<mask id="mask36_51_443" style="mask-type:luminance" maskUnits="userSpaceOnUse" x="28" y="32" width="8" height="2">
<path d="M28.4443 32.0083H35.5363V33.6702H28.4443V32.0083Z" fill="white"/>
</mask>
<g mask="url(#mask36_51_443)">
<mask id="mask37_51_443" style="mask-type:luminance" maskUnits="userSpaceOnUse" x="0" y="0" width="64" height="64">
<path d="M64 31.8701C64 49.4712 49.6728 63.7386 32 63.7386C14.3272 63.7386 0 49.4712 0 31.8701C0 14.2691 14.3272 0 32 0C49.6728 0 64 14.2691 64 31.8701Z" fill="white"/>
</mask>
<g mask="url(#mask37_51_443)">
<path d="M28.6692 33.1995C29.6388 33.3861 30.5464 33.4673 31.371 33.4673C33.2336 33.464 34.6628 33.0616 35.4221 32.4627C35.5118 32.3913 35.5264 32.2614 35.4547 32.1705C35.383 32.0813 35.251 32.0667 35.1614 32.1381C34.5373 32.6412 33.1701 33.0551 31.371 33.0518C30.5741 33.0518 29.6925 32.9723 28.749 32.7921C28.6349 32.771 28.5258 32.8441 28.5046 32.9577C28.4818 33.0697 28.5567 33.1784 28.6692 33.1995Z" fill="#150A08"/>
</g>
</g>
<mask id="mask38_51_443" style="mask-type:luminance" maskUnits="userSpaceOnUse" x="30" y="34" width="4" height="3">
<path d="M30.113 34.0854H33.8676V36.5783H30.113V34.0854Z" fill="white"/>
</mask>
<g mask="url(#mask38_51_443)">
<mask id="mask39_51_443" style="mask-type:luminance" maskUnits="userSpaceOnUse" x="0" y="0" width="64" height="64">
<path d="M64 31.8701C64 49.4712 49.6728 63.7386 32 63.7386C14.3272 63.7386 0 49.4712 0 31.8701C0 14.2691 14.3272 0 32 0C49.6728 0 64 14.2691 64 31.8701Z" fill="white"/>
</mask>
<g mask="url(#mask39_51_443)">
<path d="M31.9054 36.194C31.8744 36.194 31.8451 36.1924 31.8158 36.1892C30.9602 36.1064 29.5132 34.5256 30.7956 34.5256C30.7956 34.5256 30.7973 34.5256 30.7989 34.5256C30.8022 34.5256 30.8054 34.5256 30.807 34.5256C31.1835 34.5256 31.6137 34.4607 32.0292 34.3958C32.4448 34.3325 32.8456 34.2676 33.1634 34.2676C33.4812 34.2676 33.7158 34.3325 33.7989 34.5256C34.0418 35.0872 32.7625 36.194 31.9054 36.194Z" fill="#EA9C7B"/>
</g>
</g>
<mask id="mask40_51_443" style="mask-type:luminance" maskUnits="userSpaceOnUse" x="18" y="13" width="16" height="27">
<path d="M18.4321 13.3115H33.4503V39.0712H18.4321V13.3115Z" fill="white"/>
</mask>
<g mask="url(#mask40_51_443)">
<mask id="mask41_51_443" style="mask-type:luminance" maskUnits="userSpaceOnUse" x="0" y="0" width="64" height="64">
<path d="M64 31.8701C64 49.4712 49.6728 63.7386 32 63.7386C14.3272 63.7386 0 49.4712 0 31.8701C0 14.2691 14.3272 0 32 0C49.6728 0 64 14.2691 64 31.8701Z" fill="white"/>
</mask>
<g mask="url(#mask41_51_443)">
<path d="M33.201 14.2365C19.7944 18.6331 21.9308 31.2046 24.3964 38.6654C24.3964 38.6654 15.7889 26.3438 19.6429 18.6331C23.4968 10.9208 33.201 14.2365 33.201 14.2365Z" fill="#D76A40"/>
</g>
</g>
</svg>
