<svg width="102" height="36" viewBox="0 0 102 36" fill="none" xmlns="http://www.w3.org/2000/svg">
<path d="M37.4912 35.55H35.723V0.483332H38.4774V0.0166651H28.5988V0.483332H31.3532V35.55H28.5988V36H44.2924V26.55H43.8333C43.7313 32.7833 41.0788 35.55 37.4912 35.55ZM66.6001 35.55H64.8318V0.483332H67.5863V0.0166651H57.7076V0.483332H60.4621V35.55H57.7076V36H73.4012V26.55H72.9422C72.8571 32.7833 70.1877 35.55 66.6001 35.55ZM8.22937 35.55H6.76713V17.9167H7.39623C9.84464 17.9167 11.1369 20.4667 11.1369 24.35H11.5449V10.75H11.1369C11.1369 14.0667 9.99767 17.45 7.39623 17.45H6.76713V0.483332H8.63744C11.5449 0.483332 14.7245 2.78333 14.7245 8.91667H15.1325V0.0166651H0V0.483332H2.3974V35.55H0V36H15.1835V26.6H14.7755C14.7755 33.2333 11.3409 35.55 8.22937 35.55ZM101.592 26.5833C101.592 33.2333 98.1574 35.5333 95.0458 35.5333H93.5836V17.9H94.2127C96.6611 17.9 97.9533 20.45 97.9533 24.3333H98.3784V10.7333H97.9533C97.9533 14.05 96.8141 17.4333 94.2127 17.4333H93.5836V0.466665H95.4539C98.3784 0.466665 101.541 2.76667 101.541 8.9H101.966V0H86.8165V0.466665H89.2139V35.5333H86.8165V35.9833H102V26.5833H101.592Z" fill="#C9977A"/>
</svg>
