<svg width="64" height="64" viewBox="0 0 64 64" fill="none" xmlns="http://www.w3.org/2000/svg">
<circle cx="32" cy="32" r="32" fill="#EBD6B1"/>
<path d="M22.8663 30.3418V50.6665L31.8022 45.1087V30.3418H22.8663Z" fill="#7181B0"/>
<path d="M40.7384 30.3418H31.8025V45.1087L40.7384 50.6665V30.3418Z" fill="#40507F"/>
<path d="M31.8458 27.7214L31.8507 27.7263L31.8458 27.7214Z" fill="#FF8A41"/>
<path d="M31.8025 27.6591L31.7218 27.5474L31.7777 27.6902L31.8025 27.7026V27.6591Z" fill="#FF8A41"/>
<path d="M31.8335 27.6593L31.8025 27.4978V27.6593L31.8211 27.6903L31.8335 27.6593Z" fill="#FF8A41"/>
<path d="M31.8147 27.7081L31.8208 27.6897L31.8025 27.6592V27.702L31.8147 27.7081Z" fill="#FF8A41"/>
<path d="M31.8583 27.6841L31.8894 27.5288L31.8335 27.6592L31.8397 27.6965L31.8583 27.6841Z" fill="#FF8A41"/>
<path d="M31.8458 27.7209L31.8516 27.7267V27.7151L31.8458 27.7209Z" fill="#FF8A41"/>
<path d="M31.8523 27.7267L31.8581 27.7151H31.8523V27.7267Z" fill="#FF8A41"/>
<path d="M31.8585 27.7151L31.933 27.6157L31.8585 27.684L31.8523 27.7151H31.8585Z" fill="#FF8A41"/>
<path d="M31.8032 27.7221V27.7031L31.7778 27.6904L31.7968 27.7221H31.8032Z" fill="#FF8A41"/>
<path d="M31.8459 27.7221L31.8523 27.7158L31.8586 27.6841L31.8396 27.6967L31.8459 27.7221Z" fill="#FF8A41"/>
<path d="M31.833 27.702L31.8391 27.6959L31.833 27.6592L31.8208 27.6897L31.833 27.702Z" fill="#FF8A41"/>
<path d="M31.8514 27.7275H31.8269L31.8025 27.7336H31.8269L31.8514 27.7275Z" fill="#FF8A41"/>
<path d="M31.7775 27.6903L31.6968 27.6406L31.7899 27.7214H31.7961L31.7775 27.6903Z" fill="#FF8A41"/>
<path d="M31.8086 27.7214L31.8025 27.7337L31.8269 27.7275L31.8086 27.7214Z" fill="#FF8A41"/>
<path d="M31.8141 27.7397L31.8025 27.7339L31.8083 27.7397H31.8141Z" fill="#FF8A41"/>
<path d="M31.8083 27.7397L31.8025 27.7339V27.7455L31.8083 27.7397Z" fill="#FF8A41"/>
<path d="M31.8269 27.7339H31.8025L31.8147 27.74L31.8269 27.7339Z" fill="#FF8A41"/>
<path d="M31.7964 27.7214L31.8022 27.7331V27.7214H31.7964Z" fill="#FF8A41"/>
<path d="M31.7898 27.7214L31.8014 27.7331L31.7956 27.7214H31.7898Z" fill="#FF8A41"/>
<path d="M31.8083 27.7214L31.8025 27.7331L31.8083 27.7214Z" fill="#FF8A41"/>
<path d="M31.8025 27.7214V27.7331L31.8083 27.7214H31.8025Z" fill="#FF8A41"/>
<path d="M31.839 27.7339H31.8268L31.8146 27.74L31.8268 27.7461L31.839 27.7339Z" fill="#FF8A41"/>
<path d="M31.8208 27.7586L31.8269 27.7708L31.8391 27.7525L31.8269 27.7463L31.8208 27.7586Z" fill="#FF8A41"/>
<path d="M31.8153 27.74H31.8087L31.8218 27.7597L31.8284 27.7465L31.8153 27.74Z" fill="#FF8A41"/>
<path d="M31.8025 27.7461L31.8086 27.7644L31.8208 27.7583L31.8086 27.74L31.8025 27.7461Z" fill="#FF8A41"/>
<path d="M31.8516 27.7392V27.7275L31.8458 27.7392H31.8516Z" fill="#FF8A41"/>
<path d="M31.8396 27.7522L31.8518 27.7644V27.74H31.8457L31.8396 27.7522Z" fill="#FF8A41"/>
<path d="M31.8404 27.7339L31.8273 27.747L31.8404 27.7536L31.847 27.7405L31.8404 27.7339Z" fill="#FF8A41"/>
<path d="M31.7589 27.7583L31.7895 27.7461L31.8017 27.7339L31.7589 27.7583Z" fill="#FF8A41"/>
<path d="M31.7527 27.7151L31.8016 27.7334L31.7894 27.7212L31.7527 27.7151Z" fill="#FF8A41"/>
<path d="M31.8903 27.7026L31.8586 27.7153L31.8523 27.728L31.8903 27.7026Z" fill="#FF8A41"/>
<path d="M31.8214 27.7151L31.8087 27.7214L31.8277 27.7278L31.8404 27.7214L31.8214 27.7151Z" fill="#FF8A41"/>
<path d="M31.8396 27.7214L31.8512 27.7273L31.8454 27.7214H31.8396Z" fill="#FF8A41"/>
<path d="M31.8145 27.709L31.8087 27.7206L31.8204 27.7148L31.8145 27.709Z" fill="#FF8A41"/>
<path d="M31.8329 27.7027L31.8207 27.6904L31.8146 27.7088L31.8207 27.7149L31.8329 27.7027Z" fill="#FF8A41"/>
<path d="M31.8273 27.7275H31.8517L31.8395 27.7214L31.8273 27.7275Z" fill="#FF8A41"/>
<path d="M31.8025 27.7026V27.7223H31.8091L31.8156 27.7092L31.8025 27.7026Z" fill="#FF8A41"/>
<path d="M31.8391 27.721H31.8453L31.833 27.7026L31.8208 27.7149L31.8391 27.721Z" fill="#FF8A41"/>
<path d="M31.8454 27.7392L31.8512 27.7275L31.8396 27.7334L31.8454 27.7392Z" fill="#FF8A41"/>
<path d="M31.8395 27.7336L31.8517 27.7275L31.8273 27.7336H31.8395Z" fill="#FF8A41"/>
<path d="M31.8457 27.721L31.8396 27.6965L31.8335 27.7027L31.8457 27.721Z" fill="#FF8A41"/>
<path d="M31.8022 27.7455V27.7339L31.7964 27.7455H31.8022Z" fill="#FF8A41"/>
<path d="M31.8025 27.709L18.6315 29.0814C18.6737 29.6313 18.5317 30.1797 18.2279 30.64C18.0627 30.8578 17.9561 31.1142 17.9181 31.3849C17.88 31.6555 17.9118 31.9314 18.0105 32.1863L31.759 27.7587L31.8025 27.709Z" fill="#F48462"/>
<path d="M19.1654 23.5857C18.976 24.0992 18.6224 24.5358 18.1594 24.8277C17.9223 24.957 17.7221 25.1446 17.5775 25.3727C17.433 25.6009 17.3491 25.8621 17.3335 26.1317L31.7527 27.709L19.1654 23.5857Z" fill="#F48462"/>
<path d="M31.7527 27.7091L17.3335 26.1628C17.3318 26.3979 17.3809 26.6305 17.4773 26.8449C17.5738 27.0592 17.7154 27.2502 17.8924 27.4048C18.3342 27.8453 18.5974 28.4337 18.6314 29.0566L31.8024 27.7091H31.7527Z" fill="#F27729"/>
<path d="M18.0105 32.1861C18.1052 32.4022 18.2451 32.5955 18.4208 32.7529C18.5965 32.9104 18.8038 33.0284 19.0289 33.099C19.6124 33.3155 20.0933 33.7433 20.3764 34.2975L31.7652 27.7585L18.0105 32.1861Z" fill="#F27729"/>
<path d="M31.7897 27.7463H31.7587L20.3761 34.2977C20.6443 34.786 20.7405 35.3502 20.6493 35.8998C20.5874 36.1636 20.5936 36.4389 20.6675 36.6996C20.7414 36.9604 20.8805 37.198 21.0716 37.3902L31.7276 27.8395L31.7897 27.7463Z" fill="#F48462"/>
<path d="M31.7838 27.7089L31.7217 27.5661L23.2515 15.8171C23.0527 15.9759 22.8931 16.1784 22.7854 16.4089C22.6777 16.6394 22.6247 16.8917 22.6305 17.146C22.6046 17.7562 22.3548 18.3354 21.9288 18.773L31.7155 27.6406L31.7838 27.7089Z" fill="#F27729"/>
<path d="M31.8023 27.6593V27.4979L28.7968 13.3582C28.545 13.4153 28.3102 13.5312 28.1117 13.6963C27.9131 13.8614 27.7564 14.0711 27.6542 14.3083C27.3944 14.8387 26.9541 15.2592 26.4122 15.4943L31.734 27.5476L31.8023 27.6593Z" fill="#F27729"/>
<path d="M26.4001 15.4944C25.8679 15.7359 25.2676 15.7821 24.7048 15.6248C24.4643 15.5419 24.2077 15.5162 23.9555 15.5496C23.7033 15.583 23.4624 15.6747 23.2517 15.8173L31.7219 27.5476L26.4001 15.4944Z" fill="#F48462"/>
<path d="M21.0659 37.39C21.2394 37.5514 21.4458 37.6734 21.6709 37.7473C21.8961 37.8213 22.1346 37.8456 22.37 37.8185C22.9787 37.7811 23.5799 37.969 24.059 38.3463L31.7219 27.8394L21.0659 37.39Z" fill="#F27729"/>
<path d="M21.9104 18.7729C21.5259 19.1884 21.011 19.4601 20.4511 19.543C20.1935 19.57 19.9462 19.6585 19.73 19.8012C19.5139 19.9439 19.3352 20.1364 19.2091 20.3627L31.7219 27.6405L21.9104 18.7729Z" fill="#F48462"/>
<path d="M31.7902 27.709L31.6971 27.6283L19.1843 20.3628C19.0762 20.5842 19.02 20.8274 19.02 21.0738C19.02 21.3202 19.0762 21.5634 19.1843 21.7848C19.4096 22.364 19.4096 23.0065 19.1843 23.5857L31.7529 27.709H31.7902Z" fill="#F27729"/>
<path d="M31.8014 27.7339L31.7898 27.7455H31.7956L31.8014 27.7339Z" fill="#FF8A41"/>
<path d="M42.5452 37.3837C42.7323 37.1903 42.8683 36.9533 42.941 36.6942C43.0136 36.4351 43.0206 36.162 42.9613 35.8995C42.8724 35.3668 42.9596 34.8196 43.2097 34.3408L31.9513 27.8206L42.5452 37.3837Z" fill="#F27729"/>
<path d="M31.865 27.74L31.9519 27.8207L43.2103 34.341C43.4923 33.7692 43.9804 33.3254 44.5765 33.099C44.7975 33.029 45.0013 32.9131 45.1747 32.7591C45.348 32.605 45.4869 32.4162 45.5824 32.2048L31.9209 27.7462L31.865 27.74Z" fill="#F48462"/>
<path d="M31.8953 27.7463L45.5568 32.205C45.661 31.9484 45.6963 31.669 45.6593 31.3945C45.6223 31.12 45.5142 30.86 45.3457 30.6401C45.0546 30.1929 44.9152 29.6637 44.9483 29.1311L31.8953 27.7463Z" fill="#F27729"/>
<path d="M31.7899 27.7834L31.7216 27.8393L24.0587 38.3463C24.5176 38.682 24.8448 39.1674 24.984 39.7187C25.0369 39.982 25.1542 40.2281 25.3254 40.4351C25.4966 40.6421 25.7164 40.8034 25.9651 40.9048L31.7713 27.9325L31.7899 27.7834Z" fill="#F48462"/>
<path d="M37.6834 40.8925C37.9219 40.7868 38.1313 40.6247 38.2935 40.4203C38.4557 40.2159 38.566 39.9752 38.6149 39.7189C38.7543 39.1825 39.069 38.7082 39.5091 38.3714L31.9331 27.9141L37.6834 40.8925Z" fill="#F27729"/>
<path d="M31.8148 27.802L31.7589 27.9324L29.0701 40.5507C29.6462 40.6649 30.1632 40.9795 30.5294 41.4387C30.6752 41.6521 30.8706 41.8268 31.0988 41.948C31.327 42.0691 31.5813 42.133 31.8396 42.1342L31.8707 27.9572L31.8148 27.802Z" fill="#F48462"/>
<path d="M31.8523 27.802V27.9572L34.5039 40.5631C35.093 40.415 35.716 40.4879 36.255 40.7681C36.4682 40.8956 36.7075 40.9731 36.9549 40.9946C37.2023 41.0161 37.4514 40.9811 37.6833 40.8923L31.933 27.9138L31.8523 27.802Z" fill="#F48462"/>
<path d="M25.965 40.9049C26.1937 40.9853 26.4373 41.0147 26.6787 40.9911C26.92 40.9675 27.1533 40.8915 27.3622 40.7683C27.8855 40.4961 28.4887 40.419 29.0637 40.5509L31.7711 27.9326L25.965 40.9049Z" fill="#F27729"/>
<path d="M31.8208 42.1345C32.067 42.1203 32.3067 42.0503 32.5219 41.9298C32.737 41.8093 32.922 41.6415 33.0628 41.439C33.4184 40.9942 33.916 40.6851 34.4724 40.5634L31.8208 27.9575V42.1345Z" fill="#F27729"/>
<path d="M31.8706 27.771L31.9327 27.9138L39.5087 38.3711C39.9941 37.9807 40.6068 37.7838 41.2288 37.8184C41.4666 37.8466 41.7078 37.8222 41.9352 37.7471C42.1627 37.672 42.3709 37.548 42.5453 37.3838L31.9513 27.8207L31.8706 27.771Z" fill="#F48462"/>
<path d="M31.8395 27.7524L31.8273 27.7708L31.8517 27.8013V27.7647L31.8395 27.7524Z" fill="#FF8A41"/>
<path d="M31.8146 27.802L31.8518 27.9573V27.802L31.827 27.771L31.8146 27.802Z" fill="#FF8A41"/>
<path d="M31.8523 27.8021L31.933 27.9139L31.8709 27.7711L31.8523 27.7649V27.8021Z" fill="#FF8A41"/>
<path d="M31.8709 27.771L31.9517 27.8207L31.8647 27.74H31.8523L31.8709 27.771Z" fill="#FF8A41"/>
<path d="M31.8523 27.74V27.7653L31.8713 27.7717L31.8523 27.74Z" fill="#FF8A41"/>
<path d="M31.79 27.7835L31.7589 27.9264L31.8148 27.8021L31.8086 27.7649L31.79 27.7835Z" fill="#FF8A41"/>
<path d="M31.8209 27.7585L31.8087 27.7647L31.8148 27.8013L31.8271 27.7708L31.8209 27.7585Z" fill="#FF8A41"/>
<path d="M31.8025 27.7463H31.7961L31.7898 27.7844L31.8088 27.7653L31.8025 27.7463Z" fill="#FF8A41"/>
<path d="M31.7901 27.7463L31.7218 27.8457L31.7901 27.7836L31.7963 27.7463H31.7901Z" fill="#FF8A41"/>
<path d="M31.8025 14.3454C31.2121 14.3507 30.6385 14.1485 30.1818 13.7741C29.9997 13.6011 29.7795 13.4733 29.539 13.401C29.2984 13.3287 29.0443 13.314 28.797 13.3581L31.8025 27.4978V14.3454Z" fill="#F48462"/>
<path d="M31.8523 27.7392H31.8639L31.8523 27.7275V27.7392Z" fill="#FF8A41"/>
<path d="M41.7256 18.8042C41.2833 18.364 41.02 17.7754 40.9866 17.1524C40.9906 16.9187 40.9445 16.687 40.8513 16.4727C40.7581 16.2585 40.62 16.0667 40.4464 15.9104L31.9265 27.6159L41.7256 18.8042Z" fill="#F48462"/>
<path d="M31.8582 27.7089L31.9265 27.6405L40.4463 15.9102C40.2345 15.7321 39.98 15.6121 39.7079 15.562C39.4357 15.5119 39.1552 15.5335 38.8939 15.6246C38.3479 15.7739 37.7673 15.7323 37.2483 15.5066L31.8892 27.5288L31.8582 27.7089Z" fill="#F27729"/>
<path d="M37.2482 15.5068C36.681 15.2811 36.2168 14.8545 35.9442 14.3083C35.8483 14.0874 35.7052 13.89 35.525 13.7302C35.3447 13.5704 35.1318 13.4519 34.9009 13.3831L31.8892 27.529L37.2482 15.5068Z" fill="#F48462"/>
<path d="M31.8335 27.6594L31.8894 27.529L34.9012 13.383C34.6408 13.3188 34.3685 13.321 34.1092 13.3893C33.8499 13.4577 33.6119 13.59 33.417 13.7742C32.9636 14.1501 32.3914 14.3525 31.8025 14.3455V27.4979L31.8335 27.6594Z" fill="#F27729"/>
<path d="M31.8523 27.709L46.2652 26.2063C46.2622 25.9255 46.184 25.6507 46.0387 25.4105C45.8935 25.1702 45.6865 24.9733 45.4393 24.8401C44.9856 24.5442 44.6411 24.108 44.4582 23.5981L31.8896 27.709H31.8523Z" fill="#F27729"/>
<path d="M31.8582 27.709H31.8892L44.4641 20.4621C44.343 20.2086 44.1579 19.991 43.927 19.8309C43.6961 19.6708 43.4275 19.5737 43.1476 19.5493C42.6049 19.4668 42.1049 19.207 41.7255 18.8103L31.9265 27.6158L31.8582 27.709Z" fill="#F27729"/>
<path d="M31.8958 27.7463L44.9736 29.131C44.991 28.4897 45.2558 27.88 45.7126 27.4296C45.8826 27.2776 46.0194 27.0921 46.1145 26.8848C46.2096 26.6775 46.2609 26.4529 46.2652 26.2249L31.8523 27.709L31.8958 27.7463Z" fill="#F48462"/>
<path d="M31.8645 27.7398L31.8951 27.7459L31.8523 27.7275L31.8645 27.7398Z" fill="#FF8A41"/>
<path d="M44.4578 23.6291C44.2161 23.0316 44.2161 22.3636 44.4578 21.7662C44.5484 21.5563 44.5951 21.3302 44.5951 21.1017C44.5951 20.8732 44.5484 20.6471 44.4578 20.4373L31.8892 27.7089L44.4578 23.6291Z" fill="#F48462"/>
<path d="M41.5392 27.7587C41.5404 29.6862 40.9699 31.5708 39.8998 33.1741C38.8297 34.7773 37.308 36.027 35.5275 36.7652C33.7469 37.5035 31.7873 37.6969 29.8968 37.3212C28.0062 36.9454 26.2696 36.0174 24.9066 34.6544C23.5436 33.2914 22.6155 31.5548 22.2398 29.6642C21.864 27.7736 22.0575 25.8141 22.7957 24.0335C23.5339 22.2529 24.7837 20.7313 26.3869 19.6612C27.9901 18.591 29.8747 18.0205 31.8022 18.0217C34.3841 18.0234 36.8598 19.0498 38.6855 20.8754C40.5112 22.7011 41.5376 25.1768 41.5392 27.7587Z" fill="#FFC021"/>
<path d="M31.8022 37.8122C29.8135 37.8134 27.8691 37.2248 26.215 36.1208C24.5608 35.0169 23.2713 33.4471 22.5094 31.6102C21.7475 29.7732 21.5475 27.7516 21.9347 25.8009C22.322 23.8503 23.279 22.0583 24.6848 20.6517C26.0906 19.245 27.8819 18.2869 29.8323 17.8985C31.7827 17.51 33.8045 17.7088 35.6419 18.4695C37.4794 19.2303 39.0499 20.5189 40.1549 22.1723C41.2599 23.8258 41.8497 25.7698 41.8497 27.7585C41.848 30.4233 40.7891 32.9786 38.9054 34.8635C37.0217 36.7484 34.467 37.8089 31.8022 37.8122ZM31.8022 18.332C29.9361 18.3308 28.1115 18.8831 26.5593 19.9191C25.0072 20.9551 23.7972 22.4283 23.0825 24.1521C22.3678 25.876 22.1805 27.7731 22.5442 29.6034C22.908 31.4338 23.8065 33.1151 25.1261 34.4346C26.4456 35.7542 28.1269 36.6527 29.9573 37.0165C31.7876 37.3802 33.6847 37.1929 35.4086 36.4782C37.1324 35.7635 38.6056 34.5535 39.6416 33.0014C40.6776 31.4492 41.2299 29.6246 41.2287 27.7585C41.2238 25.26 40.229 22.8652 38.4623 21.0984C36.6955 19.3317 34.3007 18.337 31.8022 18.332Z" fill="#F2A416"/>
</svg>
