<svg width="64" height="64" viewBox="0 0 64 64" fill="none" xmlns="http://www.w3.org/2000/svg">
<path d="M64 31.9959C64 49.6664 49.6728 63.9918 32 63.9918C14.3272 63.9918 0 49.6664 0 31.9959C0 14.3254 14.3272 0 32 0C49.6728 0 64 14.3254 64 31.9959Z" fill="#EEB7C4"/>
<mask id="mask0_50_1715" style="mask-type:luminance" maskUnits="userSpaceOnUse" x="18" y="5" width="28" height="26">
<path d="M18.0344 5.60352H45.5678V30.6306H18.0344V5.60352Z" fill="white"/>
</mask>
<g mask="url(#mask0_50_1715)">
<mask id="mask1_50_1715" style="mask-type:luminance" maskUnits="userSpaceOnUse" x="0" y="0" width="64" height="64">
<path d="M64 31.9959C64 49.6664 49.6728 63.9918 32 63.9918C14.3272 63.9918 0 49.6664 0 31.9959C0 14.3254 14.3272 0 32 0C49.6728 0 64 14.3254 64 31.9959Z" fill="white"/>
</mask>
<g mask="url(#mask1_50_1715)">
<path d="M44.6895 26.1219C44.9486 22.5553 47.6618 12.6324 41.8051 13.307C41.0457 8.14023 36.2043 5.52509 31.5404 5.76461C18.8884 6.41147 16.9313 17.9669 18.9145 26.1219C22.1247 34.6729 38.6226 27.9876 44.6878 26.1366L44.6895 26.1219Z" fill="#D76A40"/>
</g>
</g>
<mask id="mask2_50_1715" style="mask-type:luminance" maskUnits="userSpaceOnUse" x="3" y="42" width="58" height="22">
<path d="M3.85083 42.3096H60.169V63.9997H3.85083V42.3096Z" fill="white"/>
</mask>
<g mask="url(#mask2_50_1715)">
<mask id="mask3_50_1715" style="mask-type:luminance" maskUnits="userSpaceOnUse" x="0" y="0" width="64" height="64">
<path d="M64 31.9959C64 49.6664 49.6728 63.9918 32 63.9918C14.3272 63.9918 0 49.6664 0 31.9959C0 14.3254 14.3272 0 32 0C49.6728 0 64 14.3254 64 31.9959Z" fill="white"/>
</mask>
<g mask="url(#mask3_50_1715)">
<path d="M59.874 64.6567H4.12451C4.12451 64.6567 5.81601 55.3074 9.64715 49.9256C13.4783 44.5405 27.6996 42.5771 27.6996 42.5771L32.0001 43.2403L36.3005 42.5771C36.3005 42.5771 50.5251 44.5405 54.3562 49.9256C58.189 55.3074 59.874 64.6567 59.874 64.6567Z" fill="#2E3969"/>
</g>
</g>
<mask id="mask4_50_1715" style="mask-type:luminance" maskUnits="userSpaceOnUse" x="24" y="42" width="16" height="10">
<path d="M24.292 42.3096H39.7273V51.0691H24.292V42.3096Z" fill="white"/>
</mask>
<g mask="url(#mask4_50_1715)">
<mask id="mask5_50_1715" style="mask-type:luminance" maskUnits="userSpaceOnUse" x="0" y="0" width="64" height="64">
<path d="M64 31.9959C64 49.6664 49.6728 63.9918 32 63.9918C14.3272 63.9918 0 49.6664 0 31.9959C0 14.3254 14.3272 0 32 0C49.6728 0 64 14.3254 64 31.9959Z" fill="white"/>
</mask>
<g mask="url(#mask5_50_1715)">
<path d="M24.3963 42.9792C28.1835 42.1075 31.4084 42.3616 31.9266 42.4122H31.9298C32.4481 42.3616 35.673 42.1075 39.4601 42.9792C39.8219 46.3699 38.4205 50.6405 31.9999 50.66C25.4995 50.6812 24.0297 46.4123 24.3963 42.9792Z" fill="white"/>
</g>
</g>
<mask id="mask6_50_1715" style="mask-type:luminance" maskUnits="userSpaceOnUse" x="28" y="36" width="8" height="12">
<path d="M28.0466 36.0532H35.9729V47.7325H28.0466V36.0532Z" fill="white"/>
</mask>
<g mask="url(#mask6_50_1715)">
<mask id="mask7_50_1715" style="mask-type:luminance" maskUnits="userSpaceOnUse" x="0" y="0" width="64" height="64">
<path d="M64 31.9959C64 49.6664 49.6728 63.9918 32 63.9918C14.3272 63.9918 0 49.6664 0 31.9959C0 14.3254 14.3272 0 32 0C49.6728 0 64 14.3254 64 31.9959Z" fill="white"/>
</mask>
<g mask="url(#mask7_50_1715)">
<path d="M31.907 47.3254C29.8211 47.3254 28.1296 45.6357 28.1296 43.5501V36.3369H35.6827V43.5501C35.6827 45.6357 33.9929 47.3254 31.907 47.3254Z" fill="#F1B69A"/>
</g>
</g>
<mask id="mask8_50_1715" style="mask-type:luminance" maskUnits="userSpaceOnUse" x="28" y="35" width="8" height="8">
<path d="M28.0466 35.6357H35.9729V42.7277H28.0466V35.6357Z" fill="white"/>
</mask>
<g mask="url(#mask8_50_1715)">
<mask id="mask9_50_1715" style="mask-type:luminance" maskUnits="userSpaceOnUse" x="0" y="0" width="64" height="64">
<path d="M64 31.9959C64 49.6664 49.6728 63.9918 32 63.9918C14.3272 63.9918 0 49.6664 0 31.9959C0 14.3254 14.3272 0 32 0C49.6728 0 64 14.3254 64 31.9959Z" fill="white"/>
</mask>
<g mask="url(#mask9_50_1715)">
<path d="M35.6844 35.9131V40.3423C35.6844 40.3423 34.415 42.5487 31.9071 42.5487C29.8913 42.5487 28.1313 40.6356 28.1313 40.6356V35.9131H35.6844Z" fill="#150A08"/>
</g>
</g>
<mask id="mask10_50_1715" style="mask-type:luminance" maskUnits="userSpaceOnUse" x="16" y="26" width="8" height="8">
<path d="M16.783 26.0425H23.0405V33.5516H16.783V26.0425Z" fill="white"/>
</mask>
<g mask="url(#mask10_50_1715)">
<mask id="mask11_50_1715" style="mask-type:luminance" maskUnits="userSpaceOnUse" x="0" y="0" width="64" height="64">
<path d="M64 31.9959C64 49.6664 49.6728 63.9918 32 63.9918C14.3272 63.9918 0 49.6664 0 31.9959C0 14.3254 14.3272 0 32 0C49.6728 0 64 14.3254 64 31.9959Z" fill="white"/>
</mask>
<g mask="url(#mask11_50_1715)">
<path d="M21.341 27.7484C19.2992 24.6473 16.9314 26.6402 16.9314 28.8239C16.9314 31.9869 20.3617 34.7099 22.322 32.4399C24.2824 30.1699 21.341 27.7484 21.341 27.7484Z" fill="#F1B69A"/>
</g>
</g>
<mask id="mask12_50_1715" style="mask-type:luminance" maskUnits="userSpaceOnUse" x="18" y="27" width="4" height="4">
<path d="M18.0344 27.7104H21.3718V30.2135H18.0344V27.7104Z" fill="white"/>
</mask>
<g mask="url(#mask12_50_1715)">
<mask id="mask13_50_1715" style="mask-type:luminance" maskUnits="userSpaceOnUse" x="0" y="0" width="64" height="64">
<path d="M64 31.9959C64 49.6664 49.6728 63.9918 32 63.9918C14.3272 63.9918 0 49.6664 0 31.9959C0 14.3254 14.3272 0 32 0C49.6728 0 64 14.3254 64 31.9959Z" fill="white"/>
</mask>
<g mask="url(#mask13_50_1715)">
<path d="M21.0785 29.083C20.8602 28.6756 20.6223 28.3839 20.3697 28.1916C20.1171 27.9993 19.8466 27.9081 19.5891 27.9097C19.1801 27.9097 18.8281 28.1264 18.582 28.4149C18.3376 28.7033 18.1828 29.0699 18.1812 29.4301C18.1812 29.6403 18.2382 29.8538 18.3718 30.0298C18.4419 30.121 18.5723 30.139 18.6651 30.0689C18.7564 29.9988 18.7743 29.8684 18.7042 29.7772C18.6342 29.6859 18.6 29.5686 18.5983 29.4301C18.5967 29.1938 18.7108 28.9037 18.8998 28.6854C19.0872 28.4654 19.3349 28.3252 19.5891 28.3269C19.7504 28.3269 19.9248 28.379 20.1171 28.524C20.3077 28.6691 20.5131 28.9102 20.7103 29.2802C20.7657 29.3828 20.8911 29.4203 20.9938 29.3665C21.0948 29.3128 21.1323 29.1856 21.0785 29.083Z" fill="#E07E61"/>
</g>
</g>
<mask id="mask14_50_1715" style="mask-type:luminance" maskUnits="userSpaceOnUse" x="39" y="26" width="8" height="8">
<path d="M39.7275 26.0425H46.4023V33.5516H39.7275V26.0425Z" fill="white"/>
</mask>
<g mask="url(#mask14_50_1715)">
<mask id="mask15_50_1715" style="mask-type:luminance" maskUnits="userSpaceOnUse" x="0" y="0" width="64" height="64">
<path d="M64 31.9959C64 49.6664 49.6728 63.9918 32 63.9918C14.3272 63.9918 0 49.6664 0 31.9959C0 14.3254 14.3272 0 32 0C49.6728 0 64 14.3254 64 31.9959Z" fill="white"/>
</mask>
<g mask="url(#mask15_50_1715)">
<path d="M41.7417 27.7484C43.7835 24.6473 46.1513 26.6402 46.1513 28.8239C46.1513 31.9869 42.721 34.7099 40.7607 32.4399C38.8003 30.1699 41.7417 27.7484 41.7417 27.7484Z" fill="#F1B69A"/>
</g>
</g>
<mask id="mask16_50_1715" style="mask-type:luminance" maskUnits="userSpaceOnUse" x="41" y="27" width="5" height="4">
<path d="M41.8132 27.7104H45.1506V30.2135H41.8132V27.7104Z" fill="white"/>
</mask>
<g mask="url(#mask16_50_1715)">
<mask id="mask17_50_1715" style="mask-type:luminance" maskUnits="userSpaceOnUse" x="0" y="0" width="64" height="64">
<path d="M64 31.9959C64 49.6664 49.6728 63.9918 32 63.9918C14.3272 63.9918 0 49.6664 0 31.9959C0 14.3254 14.3272 0 32 0C49.6728 0 64 14.3254 64 31.9959Z" fill="white"/>
</mask>
<g mask="url(#mask17_50_1715)">
<path d="M42.3723 29.2802C42.5695 28.9102 42.7748 28.6691 42.9655 28.524C43.1577 28.379 43.3321 28.3269 43.4934 28.3269C43.746 28.3252 43.9937 28.4654 44.1828 28.6854C44.3702 28.9037 44.4842 29.1938 44.4826 29.4301C44.4826 29.5686 44.4484 29.6859 44.3783 29.7772C44.3082 29.8684 44.3262 29.9988 44.4174 30.0689C44.5087 30.139 44.6407 30.121 44.7091 30.0298C44.8444 29.8538 44.9014 29.6403 44.8998 29.4301C44.8981 29.0699 44.745 28.7033 44.4989 28.4149C44.2545 28.1264 43.9025 27.9097 43.4934 27.9097C43.236 27.9081 42.9655 27.9993 42.7129 28.1916C42.4603 28.3839 42.2224 28.6756 42.004 29.083C41.9486 29.1856 41.9877 29.3128 42.0887 29.3665C42.1914 29.4203 42.3169 29.3828 42.3723 29.2802Z" fill="#E07E61"/>
</g>
</g>
<mask id="mask18_50_1715" style="mask-type:luminance" maskUnits="userSpaceOnUse" x="20" y="16" width="24" height="25">
<path d="M20.1204 16.4487H43.0648V40.2245H20.1204V16.4487Z" fill="white"/>
</mask>
<g mask="url(#mask18_50_1715)">
<mask id="mask19_50_1715" style="mask-type:luminance" maskUnits="userSpaceOnUse" x="0" y="0" width="64" height="64">
<path d="M64 31.9959C64 49.6664 49.6728 63.9918 32 63.9918C14.3272 63.9918 0 49.6664 0 31.9959C0 14.3254 14.3272 0 32 0C49.6728 0 64 14.3254 64 31.9959Z" fill="white"/>
</mask>
<g mask="url(#mask19_50_1715)">
<path d="M31.5323 39.9308C23.4626 39.9275 18.6912 31.111 20.5766 22.0566C22.1312 14.5973 40.9512 14.6006 42.5042 22.0566C44.3912 31.111 39.6052 39.934 31.5323 39.9308Z" fill="#F1B69A"/>
</g>
</g>
<mask id="mask20_50_1715" style="mask-type:luminance" maskUnits="userSpaceOnUse" x="19" y="23" width="25" height="19">
<path d="M19.7034 23.9565H43.4822V41.0584H19.7034V23.9565Z" fill="white"/>
</mask>
<g mask="url(#mask20_50_1715)">
<mask id="mask21_50_1715" style="mask-type:luminance" maskUnits="userSpaceOnUse" x="0" y="0" width="64" height="64">
<path d="M64 31.9959C64 49.6664 49.6728 63.9918 32 63.9918C14.3272 63.9918 0 49.6664 0 31.9959C0 14.3254 14.3272 0 32 0C49.6728 0 64 14.3254 64 31.9959Z" fill="white"/>
</mask>
<g mask="url(#mask21_50_1715)">
<path d="M43.4398 25.0255C43.4398 25.0255 43.3355 33.1511 40.3028 36.9508C37.2734 40.7505 31.9072 40.9965 31.9072 40.9965C31.9072 40.9965 25.8941 40.7505 22.8647 36.9508C19.837 33.1511 19.7278 25.0255 19.7278 25.0255L20.1482 24.2075C20.4562 26.386 21.8821 32.0301 23.5948 33.2766C26.4009 32.3381 28.4998 32.2338 31.7035 32.2338C35.1289 32.2338 37.3125 32.602 39.6917 32.9002C41.072 31.688 42.7407 26.1921 43.0193 24.2075L43.4398 25.0255Z" fill="#D76A40"/>
</g>
</g>
<mask id="mask22_50_1715" style="mask-type:luminance" maskUnits="userSpaceOnUse" x="30" y="30" width="4" height="2">
<path d="M30.1326 30.6304H33.4699V31.8819H30.1326V30.6304Z" fill="white"/>
</mask>
<g mask="url(#mask22_50_1715)">
<mask id="mask23_50_1715" style="mask-type:luminance" maskUnits="userSpaceOnUse" x="0" y="0" width="64" height="64">
<path d="M64 31.9959C64 49.6664 49.6728 63.9918 32 63.9918C14.3272 63.9918 0 49.6664 0 31.9959C0 14.3254 14.3272 0 32 0C49.6728 0 64 14.3254 64 31.9959Z" fill="white"/>
</mask>
<g mask="url(#mask23_50_1715)">
<path d="M31.8304 31.7775C31.4524 31.7775 30.46 30.8682 30.46 30.8682C30.6213 30.9448 30.8217 30.9741 31.0417 30.9741C31.3676 30.9741 31.7327 30.9106 32.07 30.8454C32.4057 30.7818 32.7137 30.7183 32.9239 30.7183C33.0885 30.7183 33.1911 30.7574 33.1993 30.8682C33.2384 31.3505 32.2069 31.7775 31.8304 31.7775Z" fill="#EA9C7B"/>
</g>
</g>
<mask id="mask24_50_1715" style="mask-type:luminance" maskUnits="userSpaceOnUse" x="29" y="28" width="3" height="4">
<path d="M29.7153 28.1279H31.8012V31.8825H29.7153V28.1279Z" fill="white"/>
</mask>
<g mask="url(#mask24_50_1715)">
<mask id="mask25_50_1715" style="mask-type:luminance" maskUnits="userSpaceOnUse" x="0" y="0" width="64" height="64">
<path d="M64 31.9959C64 49.6664 49.6728 63.9918 32 63.9918C14.3272 63.9918 0 49.6664 0 31.9959C0 14.3254 14.3272 0 32 0C49.6728 0 64 14.3254 64 31.9959Z" fill="white"/>
</mask>
<g mask="url(#mask25_50_1715)">
<path d="M30.2971 28.3479C30.0022 28.985 29.8799 29.5114 29.8799 29.9497C29.875 30.6358 30.1944 31.0986 30.5562 31.3593C30.918 31.6249 31.3091 31.7146 31.5144 31.7423C31.6285 31.7586 31.7328 31.6771 31.7474 31.563C31.7621 31.449 31.6823 31.3447 31.5682 31.33C31.415 31.3104 31.0793 31.229 30.8039 31.0253C30.5285 30.8167 30.3004 30.5087 30.2971 29.9497C30.2955 29.5896 30.3981 29.1219 30.6752 28.5222C30.7241 28.4179 30.6784 28.2941 30.5741 28.2452C30.4698 28.1979 30.346 28.2436 30.2971 28.3479Z" fill="#E07E61"/>
</g>
</g>
<mask id="mask26_50_1715" style="mask-type:luminance" maskUnits="userSpaceOnUse" x="28" y="33" width="8" height="3">
<path d="M28.4639 33.1333H35.5558V35.6363H28.4639V33.1333Z" fill="white"/>
</mask>
<g mask="url(#mask26_50_1715)">
<mask id="mask27_50_1715" style="mask-type:luminance" maskUnits="userSpaceOnUse" x="0" y="0" width="64" height="64">
<path d="M64 31.9959C64 49.6664 49.6728 63.9918 32 63.9918C14.3272 63.9918 0 49.6664 0 31.9959C0 14.3254 14.3272 0 32 0C49.6728 0 64 14.3254 64 31.9959Z" fill="white"/>
</mask>
<g mask="url(#mask27_50_1715)">
<path d="M28.6057 33.2764C31.6938 33.6088 33.7601 33.2698 35.2251 33.3204C35.2251 33.3204 33.3755 35.9326 31.2 35.4127C29.0245 34.8929 28.6057 33.2764 28.6057 33.2764Z" fill="white"/>
</g>
</g>
<mask id="mask28_50_1715" style="mask-type:luminance" maskUnits="userSpaceOnUse" x="24" y="20" width="5" height="3">
<path d="M24.292 20.6196H28.4637V22.7055H24.292V20.6196Z" fill="white"/>
</mask>
<g mask="url(#mask28_50_1715)">
<mask id="mask29_50_1715" style="mask-type:luminance" maskUnits="userSpaceOnUse" x="0" y="0" width="64" height="64">
<path d="M64 31.9959C64 49.6664 49.6728 63.9918 32 63.9918C14.3272 63.9918 0 49.6664 0 31.9959C0 14.3254 14.3272 0 32 0C49.6728 0 64 14.3254 64 31.9959Z" fill="white"/>
</mask>
<g mask="url(#mask29_50_1715)">
<path d="M28.3498 21.498C27.8463 20.372 24.8902 20.8869 24.473 21.6887C24.0559 22.4904 25.4378 22.7153 26.4644 22.6648C27.491 22.6159 28.6708 22.215 28.3498 21.498Z" fill="#D76A40"/>
</g>
</g>
<mask id="mask30_50_1715" style="mask-type:luminance" maskUnits="userSpaceOnUse" x="34" y="20" width="5" height="3">
<path d="M34.3042 20.6196H38.8931V22.7055H34.3042V20.6196Z" fill="white"/>
</mask>
<g mask="url(#mask30_50_1715)">
<mask id="mask31_50_1715" style="mask-type:luminance" maskUnits="userSpaceOnUse" x="0" y="0" width="64" height="64">
<path d="M64 31.9959C64 49.6664 49.6728 63.9918 32 63.9918C14.3272 63.9918 0 49.6664 0 31.9959C0 14.3254 14.3272 0 32 0C49.6728 0 64 14.3254 64 31.9959Z" fill="white"/>
</mask>
<g mask="url(#mask31_50_1715)">
<path d="M34.7327 21.498C35.2362 20.372 38.1906 20.8869 38.6094 21.6887C39.0266 22.4904 37.6447 22.7153 36.6181 22.6648C35.5915 22.6159 34.4117 22.215 34.7327 21.498Z" fill="#D76A40"/>
</g>
</g>
<mask id="mask32_50_1715" style="mask-type:luminance" maskUnits="userSpaceOnUse" x="30" y="35" width="4" height="4">
<path d="M30.1326 35.6357H33.8871V38.1388H30.1326V35.6357Z" fill="white"/>
</mask>
<g mask="url(#mask32_50_1715)">
<mask id="mask33_50_1715" style="mask-type:luminance" maskUnits="userSpaceOnUse" x="0" y="0" width="64" height="64">
<path d="M64 31.9959C64 49.6664 49.6728 63.9918 32 63.9918C14.3272 63.9918 0 49.6664 0 31.9959C0 14.3254 14.3272 0 32 0C49.6728 0 64 14.3254 64 31.9959Z" fill="white"/>
</mask>
<g mask="url(#mask33_50_1715)">
<path d="M31.8468 37.8474C31.8158 37.8474 31.7865 37.8458 31.7572 37.8425C30.9016 37.7594 29.4546 36.1722 30.737 36.1722C30.7387 36.1722 30.7387 36.1722 30.7403 36.1722C30.7436 36.1722 30.7468 36.1722 30.7501 36.1722C31.1265 36.1722 31.5567 36.1086 31.9723 36.0435C32.3862 35.9783 32.787 35.9131 33.1064 35.9131C33.4226 35.9131 33.6572 35.9783 33.7404 36.1722C33.9832 36.7377 32.7056 37.8474 31.8468 37.8474Z" fill="#D15B33"/>
</g>
</g>
<mask id="mask34_50_1715" style="mask-type:luminance" maskUnits="userSpaceOnUse" x="25" y="24" width="4" height="3">
<path d="M25.9609 24.791H28.0468V26.8769H25.9609V24.791Z" fill="white"/>
</mask>
<g mask="url(#mask34_50_1715)">
<mask id="mask35_50_1715" style="mask-type:luminance" maskUnits="userSpaceOnUse" x="0" y="0" width="64" height="64">
<path d="M64 31.9959C64 49.6664 49.6728 63.9918 32 63.9918C14.3272 63.9918 0 49.6664 0 31.9959C0 14.3254 14.3272 0 32 0C49.6728 0 64 14.3254 64 31.9959Z" fill="white"/>
</mask>
<g mask="url(#mask35_50_1715)">
<path d="M26.2151 25.8384C26.2151 26.2865 26.5785 26.6499 27.0266 26.6499C27.4748 26.6499 27.8381 26.2865 27.8381 25.8384C27.8381 25.3903 27.4748 25.0269 27.0266 25.0269C26.5785 25.0269 26.2151 25.3903 26.2151 25.8384Z" fill="#150A08"/>
</g>
</g>
<mask id="mask36_50_1715" style="mask-type:luminance" maskUnits="userSpaceOnUse" x="35" y="24" width="3" height="3">
<path d="M35.1387 24.791H37.2245V26.8769H35.1387V24.791Z" fill="white"/>
</mask>
<g mask="url(#mask36_50_1715)">
<mask id="mask37_50_1715" style="mask-type:luminance" maskUnits="userSpaceOnUse" x="0" y="0" width="64" height="64">
<path d="M64 31.9959C64 49.6664 49.6728 63.9918 32 63.9918C14.3272 63.9918 0 49.6664 0 31.9959C0 14.3254 14.3272 0 32 0C49.6728 0 64 14.3254 64 31.9959Z" fill="white"/>
</mask>
<g mask="url(#mask37_50_1715)">
<path d="M36.8674 25.8384C36.8674 26.2865 36.504 26.6499 36.0559 26.6499C35.6062 26.6499 35.2444 26.2865 35.2444 25.8384C35.2444 25.3903 35.6062 25.0269 36.0559 25.0269C36.504 25.0269 36.8674 25.3903 36.8674 25.8384Z" fill="#150A08"/>
</g>
</g>
<mask id="mask38_50_1715" style="mask-type:luminance" maskUnits="userSpaceOnUse" x="25" y="13" width="14" height="9">
<path d="M25.1265 13.1118H38.0588V21.0371H25.1265V13.1118Z" fill="white"/>
</mask>
<g mask="url(#mask38_50_1715)">
<mask id="mask39_50_1715" style="mask-type:luminance" maskUnits="userSpaceOnUse" x="0" y="0" width="64" height="64">
<path d="M64 31.9959C64 49.6664 49.6728 63.9918 32 63.9918C14.3272 63.9918 0 49.6664 0 31.9959C0 14.3254 14.3272 0 32 0C49.6728 0 64 14.3254 64 31.9959Z" fill="white"/>
</mask>
<g mask="url(#mask39_50_1715)">
<path d="M25.3594 16.6071L27.2383 16.1508C27.2383 16.1508 24.7907 20.0814 30.0069 20.8342C35.2232 21.5887 40.6578 18.0574 36.3248 16.2551L37.899 16.1508L34.1102 13.2437L25.3594 16.6071Z" fill="#D76A40"/>
</g>
</g>
</svg>
