<svg width="64" height="64" viewBox="0 0 64 64" fill="none" xmlns="http://www.w3.org/2000/svg">
<path d="M64 31.9959C64 49.6664 49.6728 63.9918 32 63.9918C14.3272 63.9918 0 49.6664 0 31.9959C0 14.3254 14.3272 0 32 0C49.6728 0 64 14.3254 64 31.9959Z" fill="#EBD6B1"/>
<mask id="mask0_51_442" style="mask-type:luminance" maskUnits="userSpaceOnUse" x="15" y="5" width="32" height="26">
<path d="M15.551 5.60352H46.4217V30.2135H15.551V5.60352Z" fill="white"/>
</mask>
<g mask="url(#mask0_51_442)">
<mask id="mask1_51_442" style="mask-type:luminance" maskUnits="userSpaceOnUse" x="0" y="0" width="64" height="64">
<path d="M64 31.9959C64 49.6664 49.6728 63.9918 32 63.9918C14.3272 63.9918 0 49.6664 0 31.9959C0 14.3254 14.3272 0 32 0C49.6728 0 64 14.3254 64 31.9959Z" fill="white"/>
</mask>
<g mask="url(#mask1_51_442)">
<path d="M44.0898 26.1543C48.4946 18.2241 45.0057 13.6798 42.1865 15.1674C42.1865 15.1674 41.7595 10.25 35.3064 7.28617C27.8381 3.85635 18.1926 6.53014 16.3121 11.6969C14.5766 16.4628 17.676 18.7618 17.676 18.7618C17.676 18.7618 15.758 22.1867 19.0384 27.3127C22.3203 32.4387 42.1181 29.703 44.0898 26.1543Z" fill="#212121"/>
</g>
</g>
<mask id="mask2_51_442" style="mask-type:luminance" maskUnits="userSpaceOnUse" x="3" y="42" width="58" height="22">
<path d="M3.87036 42.3101H60.1885V64.0002H3.87036V42.3101Z" fill="white"/>
</mask>
<g mask="url(#mask2_51_442)">
<mask id="mask3_51_442" style="mask-type:luminance" maskUnits="userSpaceOnUse" x="0" y="0" width="64" height="64">
<path d="M64 31.9959C64 49.6664 49.6728 63.9918 32 63.9918C14.3272 63.9918 0 49.6664 0 31.9959C0 14.3254 14.3272 0 32 0C49.6728 0 64 14.3254 64 31.9959Z" fill="white"/>
</mask>
<g mask="url(#mask3_51_442)">
<path d="M59.874 64.6567H4.12451C4.12451 64.6567 5.81601 55.3074 9.64715 49.9256C13.4783 44.5405 27.6996 42.5771 27.6996 42.5771L32.0001 43.2403L36.2989 42.5771C36.2989 42.5771 50.5251 44.5405 54.3562 49.9256C58.1874 55.3074 59.874 64.6567 59.874 64.6567Z" fill="#857DB0"/>
</g>
</g>
<mask id="mask4_51_442" style="mask-type:luminance" maskUnits="userSpaceOnUse" x="21" y="42" width="12" height="12">
<path d="M21.8086 42.3101H32.2379V53.1551H21.8086V42.3101Z" fill="white"/>
</mask>
<g mask="url(#mask4_51_442)">
<mask id="mask5_51_442" style="mask-type:luminance" maskUnits="userSpaceOnUse" x="0" y="0" width="64" height="64">
<path d="M64 31.9959C64 49.6664 49.6728 63.9918 32 63.9918C14.3272 63.9918 0 49.6664 0 31.9959C0 14.3254 14.3272 0 32 0C49.6728 0 64 14.3254 64 31.9959Z" fill="white"/>
</mask>
<g mask="url(#mask5_51_442)">
<path d="M27.6997 42.5771L22.1934 43.6102C22.1934 43.6102 23.4628 49.8376 28.4966 52.9497L31.9154 48.7622V44.2684L27.6997 42.5771Z" fill="white"/>
</g>
</g>
<mask id="mask6_51_442" style="mask-type:luminance" maskUnits="userSpaceOnUse" x="31" y="42" width="11" height="12">
<path d="M31.4036 42.3101H41.8329V53.1551H31.4036V42.3101Z" fill="white"/>
</mask>
<g mask="url(#mask6_51_442)">
<mask id="mask7_51_442" style="mask-type:luminance" maskUnits="userSpaceOnUse" x="0" y="0" width="64" height="64">
<path d="M64 31.9959C64 49.6664 49.6728 63.9918 32 63.9918C14.3272 63.9918 0 49.6664 0 31.9959C0 14.3254 14.3272 0 32 0C49.6728 0 64 14.3254 64 31.9959Z" fill="white"/>
</mask>
<g mask="url(#mask7_51_442)">
<path d="M35.9191 42.5771L41.4254 43.6102C41.4254 43.6102 40.156 49.8376 35.1206 52.9497L31.7034 48.7622V44.2684L35.9191 42.5771Z" fill="white"/>
</g>
</g>
<mask id="mask8_51_442" style="mask-type:luminance" maskUnits="userSpaceOnUse" x="28" y="36" width="8" height="12">
<path d="M28.0662 36.0537H35.9924V47.733H28.0662V36.0537Z" fill="white"/>
</mask>
<g mask="url(#mask8_51_442)">
<mask id="mask9_51_442" style="mask-type:luminance" maskUnits="userSpaceOnUse" x="0" y="0" width="64" height="64">
<path d="M64 31.9959C64 49.6664 49.6728 63.9918 32 63.9918C14.3272 63.9918 0 49.6664 0 31.9959C0 14.3254 14.3272 0 32 0C49.6728 0 64 14.3254 64 31.9959Z" fill="white"/>
</mask>
<g mask="url(#mask9_51_442)">
<path d="M31.907 47.3249C29.8211 47.3249 28.1296 45.6352 28.1296 43.5496V36.3364H35.6827V43.5496C35.6827 45.6352 33.9929 47.3249 31.907 47.3249Z" fill="#F1B69A"/>
</g>
</g>
<mask id="mask10_51_442" style="mask-type:luminance" maskUnits="userSpaceOnUse" x="28" y="35" width="8" height="8">
<path d="M28.0662 35.2188H35.9924V42.3107H28.0662V35.2188Z" fill="white"/>
</mask>
<g mask="url(#mask10_51_442)">
<mask id="mask11_51_442" style="mask-type:luminance" maskUnits="userSpaceOnUse" x="0" y="0" width="64" height="64">
<path d="M64 31.9959C64 49.6664 49.6728 63.9918 32 63.9918C14.3272 63.9918 0 49.6664 0 31.9959C0 14.3254 14.3272 0 32 0C49.6728 0 64 14.3254 64 31.9959Z" fill="white"/>
</mask>
<g mask="url(#mask11_51_442)">
<path d="M35.6828 35.5024V39.9316C35.6828 39.9316 34.415 42.1364 31.9071 42.1364C29.8913 42.1364 28.1313 40.225 28.1313 40.225V35.5024H35.6828Z" fill="#150A08"/>
</g>
</g>
<mask id="mask12_51_442" style="mask-type:luminance" maskUnits="userSpaceOnUse" x="16" y="26" width="8" height="8">
<path d="M16.8025 26.0425H23.0601V33.5516H16.8025V26.0425Z" fill="white"/>
</mask>
<g mask="url(#mask12_51_442)">
<mask id="mask13_51_442" style="mask-type:luminance" maskUnits="userSpaceOnUse" x="0" y="0" width="64" height="64">
<path d="M64 31.9959C64 49.6664 49.6728 63.9918 32 63.9918C14.3272 63.9918 0 49.6664 0 31.9959C0 14.3254 14.3272 0 32 0C49.6728 0 64 14.3254 64 31.9959Z" fill="white"/>
</mask>
<g mask="url(#mask13_51_442)">
<path d="M21.341 27.7484C19.2991 24.6473 16.9297 26.6402 16.9297 28.8239C16.9297 31.9869 20.3616 34.7099 22.3203 32.4399C24.2807 30.1699 21.341 27.7484 21.341 27.7484Z" fill="#F1B69A"/>
</g>
</g>
<mask id="mask14_51_442" style="mask-type:luminance" maskUnits="userSpaceOnUse" x="18" y="27" width="4" height="4">
<path d="M18.0542 27.7109H21.3916V30.214H18.0542V27.7109Z" fill="white"/>
</mask>
<g mask="url(#mask14_51_442)">
<mask id="mask15_51_442" style="mask-type:luminance" maskUnits="userSpaceOnUse" x="0" y="0" width="64" height="64">
<path d="M64 31.9959C64 49.6664 49.6728 63.9918 32 63.9918C14.3272 63.9918 0 49.6664 0 31.9959C0 14.3254 14.3272 0 32 0C49.6728 0 64 14.3254 64 31.9959Z" fill="white"/>
</mask>
<g mask="url(#mask15_51_442)">
<path d="M21.0785 29.083C20.8585 28.6756 20.6223 28.3839 20.368 28.1916C20.1171 27.9993 19.8466 27.9081 19.5891 27.9097C19.1801 27.9097 18.8281 28.1264 18.582 28.4149C18.336 28.7033 18.1828 29.0699 18.1812 29.4301C18.1812 29.6403 18.2382 29.8538 18.3718 30.0298C18.4419 30.121 18.5723 30.139 18.6651 30.0689C18.7564 29.9988 18.7743 29.8684 18.7042 29.7772C18.6342 29.6859 18.5983 29.5686 18.5983 29.4301C18.5967 29.1938 18.7108 28.9037 18.8998 28.6854C19.0872 28.4654 19.3349 28.3252 19.5891 28.3269C19.7504 28.3269 19.9248 28.379 20.1155 28.524C20.3078 28.6691 20.5131 28.9102 20.7103 29.2802C20.764 29.3828 20.8911 29.4203 20.9922 29.3665C21.0948 29.3128 21.1323 29.1856 21.0785 29.083Z" fill="#E07E61"/>
</g>
</g>
<mask id="mask16_51_442" style="mask-type:luminance" maskUnits="userSpaceOnUse" x="39" y="26" width="8" height="8">
<path d="M39.7471 26.0425H46.4218V33.5516H39.7471V26.0425Z" fill="white"/>
</mask>
<g mask="url(#mask16_51_442)">
<mask id="mask17_51_442" style="mask-type:luminance" maskUnits="userSpaceOnUse" x="0" y="0" width="64" height="64">
<path d="M64 31.9959C64 49.6664 49.6728 63.9918 32 63.9918C14.3272 63.9918 0 49.6664 0 31.9959C0 14.3254 14.3272 0 32 0C49.6728 0 64 14.3254 64 31.9959Z" fill="white"/>
</mask>
<g mask="url(#mask17_51_442)">
<path d="M41.7401 27.7484C43.7835 24.6473 46.1513 26.6402 46.1513 28.8239C46.1513 31.9869 42.7211 34.7099 40.7607 32.4399C38.8003 30.1699 41.7401 27.7484 41.7401 27.7484Z" fill="#F1B69A"/>
</g>
</g>
<mask id="mask18_51_442" style="mask-type:luminance" maskUnits="userSpaceOnUse" x="41" y="27" width="5" height="4">
<path d="M41.833 27.7109H45.1704V30.214H41.833V27.7109Z" fill="white"/>
</mask>
<g mask="url(#mask18_51_442)">
<mask id="mask19_51_442" style="mask-type:luminance" maskUnits="userSpaceOnUse" x="0" y="0" width="64" height="64">
<path d="M64 31.9959C64 49.6664 49.6728 63.9918 32 63.9918C14.3272 63.9918 0 49.6664 0 31.9959C0 14.3254 14.3272 0 32 0C49.6728 0 64 14.3254 64 31.9959Z" fill="white"/>
</mask>
<g mask="url(#mask19_51_442)">
<path d="M42.3707 29.2802C42.5695 28.9102 42.7748 28.6691 42.9655 28.524C43.1577 28.379 43.3305 28.3269 43.4918 28.3269C43.746 28.3252 43.9937 28.4654 44.1828 28.6854C44.3702 28.9037 44.4842 29.1938 44.4826 29.4301C44.4826 29.5686 44.4467 29.6859 44.3783 29.7772C44.3082 29.8684 44.3262 29.9988 44.4174 30.0689C44.5087 30.139 44.639 30.121 44.7091 30.0298C44.8444 29.8538 44.9014 29.6403 44.8998 29.4301C44.8981 29.0699 44.745 28.7033 44.4989 28.4149C44.2545 28.1264 43.9025 27.9097 43.4918 27.9097C43.2343 27.9081 42.9655 27.9993 42.7129 28.1916C42.4603 28.3839 42.2224 28.6756 42.004 29.083C41.9486 29.1856 41.9877 29.3128 42.0887 29.3665C42.1898 29.4203 42.3169 29.3828 42.3707 29.2802Z" fill="#E07E61"/>
</g>
</g>
<mask id="mask20_51_442" style="mask-type:luminance" maskUnits="userSpaceOnUse" x="20" y="16" width="24" height="25">
<path d="M20.1401 16.4487H43.0846V40.2245H20.1401V16.4487Z" fill="white"/>
</mask>
<g mask="url(#mask20_51_442)">
<mask id="mask21_51_442" style="mask-type:luminance" maskUnits="userSpaceOnUse" x="0" y="0" width="64" height="64">
<path d="M64 31.9959C64 49.6664 49.6728 63.9918 32 63.9918C14.3272 63.9918 0 49.6664 0 31.9959C0 14.3254 14.3272 0 32 0C49.6728 0 64 14.3254 64 31.9959Z" fill="white"/>
</mask>
<g mask="url(#mask21_51_442)">
<path d="M31.5307 39.9313C23.4626 39.928 18.6896 31.1115 20.5767 22.0571C22.1313 14.5978 40.9513 14.6011 42.5042 22.0571C44.3913 31.1115 39.6036 39.9345 31.5307 39.9313Z" fill="#F1B69A"/>
</g>
</g>
<mask id="mask22_51_442" style="mask-type:luminance" maskUnits="userSpaceOnUse" x="30" y="30" width="4" height="2">
<path d="M30.1521 30.6304H33.4895V31.8819H30.1521V30.6304Z" fill="white"/>
</mask>
<g mask="url(#mask22_51_442)">
<mask id="mask23_51_442" style="mask-type:luminance" maskUnits="userSpaceOnUse" x="0" y="0" width="64" height="64">
<path d="M64 31.9959C64 49.6664 49.6728 63.9918 32 63.9918C14.3272 63.9918 0 49.6664 0 31.9959C0 14.3254 14.3272 0 32 0C49.6728 0 64 14.3254 64 31.9959Z" fill="white"/>
</mask>
<g mask="url(#mask23_51_442)">
<path d="M31.829 31.7775C31.4526 31.7775 30.4602 30.8682 30.4602 30.8682C30.6215 30.9448 30.822 30.9741 31.042 30.9741C31.3662 30.9741 31.7329 30.9106 32.0702 30.8454C32.4059 30.7818 32.7139 30.7183 32.9225 30.7183C33.0871 30.7183 33.1914 30.7574 33.1995 30.8682C33.2386 31.3505 32.2071 31.7775 31.829 31.7775Z" fill="#EA9C7B"/>
</g>
</g>
<mask id="mask24_51_442" style="mask-type:luminance" maskUnits="userSpaceOnUse" x="29" y="28" width="3" height="4">
<path d="M29.7351 28.1279H31.821V31.8825H29.7351V28.1279Z" fill="white"/>
</mask>
<g mask="url(#mask24_51_442)">
<mask id="mask25_51_442" style="mask-type:luminance" maskUnits="userSpaceOnUse" x="0" y="0" width="64" height="64">
<path d="M64 31.9959C64 49.6664 49.6728 63.9918 32 63.9918C14.3272 63.9918 0 49.6664 0 31.9959C0 14.3254 14.3272 0 32 0C49.6728 0 64 14.3254 64 31.9959Z" fill="white"/>
</mask>
<g mask="url(#mask25_51_442)">
<path d="M30.2972 28.3479C30.0023 28.985 29.8801 29.5114 29.8784 29.9497C29.8752 30.6358 30.1946 31.0986 30.5563 31.3593C30.9181 31.6249 31.3092 31.7146 31.5129 31.7423C31.627 31.7586 31.7329 31.6771 31.7476 31.563C31.7622 31.449 31.6824 31.3447 31.5683 31.33C31.4151 31.3104 31.0794 31.229 30.804 31.0253C30.5286 30.8167 30.3005 30.5087 30.2956 29.9497C30.2956 29.5896 30.3983 29.1219 30.6753 28.5222C30.7242 28.4179 30.6786 28.2941 30.5743 28.2452C30.47 28.1979 30.3461 28.2436 30.2972 28.3479Z" fill="#E07E61"/>
</g>
</g>
<mask id="mask26_51_442" style="mask-type:luminance" maskUnits="userSpaceOnUse" x="28" y="31" width="8" height="3">
<path d="M28.4834 31.8818H35.5753V33.5505H28.4834V31.8818Z" fill="white"/>
</mask>
<g mask="url(#mask26_51_442)">
<mask id="mask27_51_442" style="mask-type:luminance" maskUnits="userSpaceOnUse" x="0" y="0" width="64" height="64">
<path d="M64 31.9959C64 49.6664 49.6728 63.9918 32 63.9918C14.3272 63.9918 0 49.6664 0 31.9959C0 14.3254 14.3272 0 32 0C49.6728 0 64 14.3254 64 31.9959Z" fill="white"/>
</mask>
<g mask="url(#mask27_51_442)">
<path d="M28.6838 33.1239C29.6534 33.3113 30.5611 33.3928 31.3873 33.3928C33.2483 33.3896 34.6774 32.9854 35.4368 32.3841C35.5264 32.3124 35.5411 32.182 35.4694 32.0908C35.3977 32.0012 35.2657 31.9865 35.1761 32.0582C34.5519 32.5634 33.1847 32.9789 31.3873 32.9756C30.5888 32.9756 29.7072 32.8958 28.7637 32.7149C28.6496 32.6937 28.5404 32.7671 28.5192 32.8811C28.4964 32.9936 28.5714 33.1027 28.6838 33.1239Z" fill="#150A08"/>
</g>
</g>
<mask id="mask28_51_442" style="mask-type:luminance" maskUnits="userSpaceOnUse" x="24" y="20" width="5" height="3">
<path d="M24.3115 20.6196H28.4832V22.7055H24.3115V20.6196Z" fill="white"/>
</mask>
<g mask="url(#mask28_51_442)">
<mask id="mask29_51_442" style="mask-type:luminance" maskUnits="userSpaceOnUse" x="0" y="0" width="64" height="64">
<path d="M64 31.9959C64 49.6664 49.6728 63.9918 32 63.9918C14.3272 63.9918 0 49.6664 0 31.9959C0 14.3254 14.3272 0 32 0C49.6728 0 64 14.3254 64 31.9959Z" fill="white"/>
</mask>
<g mask="url(#mask29_51_442)">
<path d="M28.3498 21.498C27.8463 20.372 24.8902 20.8869 24.473 21.6887C24.0542 22.4904 25.4377 22.7153 26.4644 22.6648C27.4894 22.6159 28.6708 22.215 28.3498 21.498Z" fill="#150A08"/>
</g>
</g>
<mask id="mask30_51_442" style="mask-type:luminance" maskUnits="userSpaceOnUse" x="34" y="20" width="5" height="3">
<path d="M34.324 20.6196H38.9129V22.7055H34.324V20.6196Z" fill="white"/>
</mask>
<g mask="url(#mask30_51_442)">
<mask id="mask31_51_442" style="mask-type:luminance" maskUnits="userSpaceOnUse" x="0" y="0" width="64" height="64">
<path d="M64 31.9959C64 49.6664 49.6728 63.9918 32 63.9918C14.3272 63.9918 0 49.6664 0 31.9959C0 14.3254 14.3272 0 32 0C49.6728 0 64 14.3254 64 31.9959Z" fill="white"/>
</mask>
<g mask="url(#mask31_51_442)">
<path d="M34.7327 21.498C35.2362 20.372 38.1906 20.8869 38.6094 21.6887C39.0266 22.4904 37.6447 22.7153 36.6181 22.6648C35.5915 22.6159 34.4117 22.215 34.7327 21.498Z" fill="#150A08"/>
</g>
</g>
<mask id="mask32_51_442" style="mask-type:luminance" maskUnits="userSpaceOnUse" x="30" y="33" width="4" height="4">
<path d="M30.1521 33.9673H33.9066V36.4703H30.1521V33.9673Z" fill="white"/>
</mask>
<g mask="url(#mask32_51_442)">
<mask id="mask33_51_442" style="mask-type:luminance" maskUnits="userSpaceOnUse" x="0" y="0" width="64" height="64">
<path d="M64 31.9959C64 49.6664 49.6728 63.9918 32 63.9918C14.3272 63.9918 0 49.6664 0 31.9959C0 14.3254 14.3272 0 32 0C49.6728 0 64 14.3254 64 31.9959Z" fill="white"/>
</mask>
<g mask="url(#mask33_51_442)">
<path d="M31.9201 36.1301C31.8892 36.1301 31.8598 36.1285 31.8305 36.1252C30.975 36.0421 29.5279 34.4549 30.8088 34.4549C30.8104 34.4549 30.812 34.4549 30.8137 34.4549C30.8169 34.4549 30.8202 34.4549 30.8234 34.4549C31.1999 34.4549 31.6284 34.3897 32.044 34.3245C32.4595 34.2594 32.8604 34.1958 33.1782 34.1958C33.4959 34.1958 33.7306 34.2594 33.8137 34.4549C34.0565 35.0187 32.7789 36.1301 31.9201 36.1301Z" fill="#EA9C7B"/>
</g>
</g>
<mask id="mask34_51_442" style="mask-type:luminance" maskUnits="userSpaceOnUse" x="25" y="24" width="4" height="3">
<path d="M25.9805 24.791H28.0663V26.8769H25.9805V24.791Z" fill="white"/>
</mask>
<g mask="url(#mask34_51_442)">
<mask id="mask35_51_442" style="mask-type:luminance" maskUnits="userSpaceOnUse" x="0" y="0" width="64" height="64">
<path d="M64 31.9959C64 49.6664 49.6728 63.9918 32 63.9918C14.3272 63.9918 0 49.6664 0 31.9959C0 14.3254 14.3272 0 32 0C49.6728 0 64 14.3254 64 31.9959Z" fill="white"/>
</mask>
<g mask="url(#mask35_51_442)">
<path d="M26.2151 25.8384C26.2151 26.2865 26.5785 26.6499 27.0266 26.6499C27.4748 26.6499 27.8381 26.2865 27.8381 25.8384C27.8381 25.3903 27.4748 25.0269 27.0266 25.0269C26.5785 25.0269 26.2151 25.3903 26.2151 25.8384Z" fill="#150A08"/>
</g>
</g>
<mask id="mask36_51_442" style="mask-type:luminance" maskUnits="userSpaceOnUse" x="35" y="24" width="3" height="3">
<path d="M35.1582 24.791H37.2441V26.8769H35.1582V24.791Z" fill="white"/>
</mask>
<g mask="url(#mask36_51_442)">
<mask id="mask37_51_442" style="mask-type:luminance" maskUnits="userSpaceOnUse" x="0" y="0" width="64" height="64">
<path d="M64 31.9959C64 49.6664 49.6728 63.9918 32 63.9918C14.3272 63.9918 0 49.6664 0 31.9959C0 14.3254 14.3272 0 32 0C49.6728 0 64 14.3254 64 31.9959Z" fill="white"/>
</mask>
<g mask="url(#mask37_51_442)">
<path d="M36.8676 25.8384C36.8676 26.2865 36.5042 26.6499 36.0544 26.6499C35.6063 26.6499 35.2429 26.2865 35.2429 25.8384C35.2429 25.3903 35.6063 25.0269 36.0544 25.0269C36.5042 25.0269 36.8676 25.3903 36.8676 25.8384Z" fill="#150A08"/>
</g>
</g>
<mask id="mask38_51_442" style="mask-type:luminance" maskUnits="userSpaceOnUse" x="19" y="10" width="21" height="12">
<path d="M19.7229 10.6084H39.33V21.0364H19.7229V10.6084Z" fill="white"/>
</mask>
<g mask="url(#mask38_51_442)">
<mask id="mask39_51_442" style="mask-type:luminance" maskUnits="userSpaceOnUse" x="0" y="0" width="64" height="64">
<path d="M64 31.9959C64 49.6664 49.6728 63.9918 32 63.9918C14.3272 63.9918 0 49.6664 0 31.9959C0 14.3254 14.3272 0 32 0C49.6728 0 64 14.3254 64 31.9959Z" fill="white"/>
</mask>
<g mask="url(#mask39_51_442)">
<path d="M38.6846 16.4627C36.5939 21.1537 32.0148 18.4832 32.0148 18.4832C32.0148 18.4832 29.0115 21.2954 24.3965 20.8474C19.7799 20.3993 17.3763 14.8643 22.9951 12.5246C28.6139 10.1832 41.6277 9.86868 38.6846 16.4627Z" fill="#212121"/>
</g>
</g>
</svg>
