<svg width="196" height="36" viewBox="0 0 196 36" fill="none" xmlns="http://www.w3.org/2000/svg">
<path d="M8.23337 14.1613V2.25806H11.2719C16.5974 2.25806 18.3291 4.25807 18.3291 7.87097C18.3291 11.7097 17.1529 14.1613 11.6966 14.1613C11.7293 14.1613 8.23337 14.1613 8.23337 14.1613ZM8.23337 15.2903H11.5333C16.042 15.2903 17.4142 16.1613 17.839 20.129L18.1657 23.5806C18.5251 27.2258 19.4072 28.5806 24.1774 28.5806C24.9942 28.5806 26.1377 28.4516 26.8891 28.2581V27.3871C23.6873 27.2903 22.8705 26.7419 22.3477 23.7097L21.9557 21C21.4002 17.3871 20.4201 15.1613 14.9638 14.7419V14.6129C20.5181 13.6452 22.6418 11.0968 22.6418 7.74194C22.6418 4.12903 19.7993 1.12903 11.5986 1.12903H0V2C3.52859 2.12904 4.41073 2.83871 4.41073 4.32258V25.0645C4.41073 26.5484 3.52859 27.2258 0 27.3548V28.2903H12.5788V27.3548C8.88681 27.2258 8.26604 26.6452 8.26604 25.0645L8.23337 15.2903ZM34.4364 28.6452C39.5333 28.6452 43.5192 24.6452 43.5192 19.0323C43.5192 13.4516 39.762 9.6129 34.4364 9.6129C29.2742 9.6129 25.2555 13.6129 25.2555 19.1935C25.2555 24.8064 29.0128 28.6452 34.4364 28.6452ZM34.5998 27.6452C31.3652 27.6452 29.1108 25.1936 29.1108 19.0968C29.1108 12.9677 31.0058 10.5484 34.2077 10.5484C37.4422 10.5484 39.6966 12.9355 39.6966 19.0968C39.6966 25.1936 37.7363 27.6452 34.5998 27.6452ZM45.3816 28.8065H46.0677L47.7666 26.6774C49.7596 28.0968 51.7526 28.6452 53.909 28.6452C59.2345 28.6452 62.5017 23.9677 62.5017 18.5806C62.5017 13.4194 59.6593 9.6129 54.8891 9.6129C52.3734 9.6129 50.5764 10.5806 48.9428 12.2258V0L42.245 0.16129V1C44.9242 1.09678 45.5449 1.67742 45.5449 3V25.2903L45.3816 28.8065ZM53.5823 27.6452C51.5893 27.6452 49.7596 26.5161 48.9101 24.1613V13.2903C50.119 12.0645 51.5239 11.2903 53.4189 11.2903C56.6208 11.2903 58.7444 14.4194 58.7444 18.7742C58.7444 24.2258 57.1108 27.6452 53.5823 27.6452ZM64.2007 28.8065H64.9195L66.6184 26.6774C68.6114 28.0968 70.6044 28.6452 72.7608 28.6452C78.0863 28.6452 81.3536 23.9677 81.3536 18.5806C81.3536 13.4194 78.5111 9.6129 73.741 9.6129C71.2252 9.6129 69.4282 10.5806 67.7946 12.2258V0L61.0968 0.16129V1C63.776 1.09678 64.3967 1.67742 64.3967 3V25.2903L64.2007 28.8065ZM72.4014 27.6452C70.4084 27.6452 68.5788 26.5161 67.7293 24.1613V13.2903C68.9381 12.0645 70.3431 11.2903 72.238 11.2903C75.4399 11.2903 77.5636 14.4194 77.5636 18.7742C77.5636 24.2258 75.93 27.6452 72.4014 27.6452ZM94.5204 14.1613V2.25806H97.5589C102.884 2.25806 104.616 4.25807 104.616 7.87097C104.616 11.7097 103.44 14.1613 97.9837 14.1613H94.5204ZM94.5204 15.2903H97.8203C102.329 15.2903 103.701 16.1613 104.126 20.129L104.453 23.5806C104.812 27.2258 105.694 28.5806 110.464 28.5806C111.281 28.5806 112.425 28.4516 113.176 28.2581V27.3871C109.974 27.2903 109.158 26.7419 108.635 23.7097L108.243 21C107.687 17.3871 106.707 15.1613 101.251 14.7419V14.6129C106.805 13.6452 108.929 11.0968 108.929 7.74194C108.929 4.12903 106.086 1.12903 97.8856 1.12903H86.287V2C89.8156 2.12904 90.6978 2.83871 90.6978 4.32258V25.0645C90.6978 26.5484 89.8156 27.2258 86.287 27.3548V28.2903H98.8658V27.3548C95.1739 27.2258 94.5531 26.6452 94.5531 25.0645V15.2903H94.5204ZM120.495 28.6452C124.579 28.6452 126.702 26.3548 128.205 23.871L127.585 23.3548C125.918 25.3871 124.252 26.8065 121.834 26.8065C117.652 26.8065 115.463 23.3548 115.463 18.9032V18.1935H128.009C128.336 13.7742 125.82 9.6129 120.495 9.6129C115.496 9.6129 111.739 13.8064 111.739 19.3226C111.739 24.5806 115.038 28.6452 120.495 28.6452ZM120.233 10.5806C123.37 10.5806 124.644 13.2903 124.285 17.1613L115.529 17.2903C115.855 12.6129 117.652 10.5806 120.233 10.5806ZM128.107 36H138.334V35.1613C135.328 35.129 134.478 34.8387 134.478 33.6452V27.2581C135.981 28.0645 137.452 28.5806 139.51 28.5806C144.737 28.5806 147.907 24.2258 147.907 18.6774C147.907 13.3871 145.26 9.58065 140.555 9.58065C138.04 9.58065 136.145 10.7742 134.38 12.4516V9.80645L128.075 9.96774V10.8065C130.427 10.8387 131.048 11.6129 131.048 12.8065V33.6129C131.048 34.8065 130.427 35.0968 128.075 35.129L128.107 36ZM139.02 27.5806C136.733 27.5806 135.263 26.5807 134.478 24.129V13.5806C135.655 12.2903 137.092 11.2903 139.052 11.2903C142.254 11.2903 144.117 14.4839 144.117 18.9032C144.117 24.5161 142.091 27.5806 139.02 27.5806ZM158.59 28.6452C163.687 28.6452 167.673 24.6452 167.673 19.0323C167.673 13.4516 163.916 9.6129 158.59 9.6129C153.428 9.6129 149.41 13.6129 149.41 19.1935C149.41 24.8064 153.167 28.6452 158.59 28.6452ZM158.754 27.6452C155.519 27.6452 153.265 25.1936 153.265 19.0968C153.265 12.9677 155.16 10.5484 158.362 10.5484C161.596 10.5484 163.851 12.9355 163.851 19.0968C163.851 25.1936 161.89 27.6452 158.754 27.6452ZM167.739 28.3226H177.508V27.4516C174.861 27.4194 174.11 27.129 174.11 25.9677V14.6452C175.155 12.9677 176.397 11.7742 178.194 11.6452C178.096 11.9355 178.03 12.2581 178.03 12.5161C178.03 13.871 179.043 14.6452 180.252 14.6452C181.494 14.6452 182.376 13.6774 182.376 12.3871C182.376 11.0323 181.494 9.70968 179.403 9.70968C177.312 9.70968 175.449 11.2581 174.012 13.4839V9.87097L167.706 10.0323V10.871C170.058 10.9032 170.679 11.6774 170.679 12.871V25.9677C170.679 27.129 170.058 27.4194 167.706 27.4516V28.3226H167.739ZM190.511 28.7097C192.929 28.7097 194.562 27.4839 196 24.9032L195.314 24.4194C194.268 26.0323 193.158 26.871 192.014 26.871C190.348 26.871 189.596 25.9032 189.596 23.5806V11.4194H195.445V9.96774H189.596V3.32258L186.231 4.77419V9.87097L182.539 10.7097V11.4839H186.198V23.6129C186.166 27 187.603 28.7097 190.511 28.7097Z" fill="#C9977A"/>
</svg>
