<svg width="64" height="64" viewBox="0 0 64 64" fill="none" xmlns="http://www.w3.org/2000/svg">
<circle cx="32" cy="32" r="32" fill="#EEB7C4" fill-opacity="0.5"/>
<path d="M30.7095 33.7487C29.6049 33.7487 28.7095 32.8533 28.7095 31.7487V22.2925C28.7095 21.1879 27.8141 20.2925 26.7095 20.2925H19.7997C18.9999 20.2925 18.277 20.769 17.9617 21.504L14.8287 28.8078C14.7219 29.057 14.6667 29.3252 14.6667 29.5963V36.8747C14.6667 37.9792 15.5622 38.8747 16.6667 38.8747H17.7109C18.4544 38.8747 19.1114 38.4368 19.611 37.8862C19.92 37.5456 20.2782 37.2498 20.6754 37.0097C21.4197 36.5597 22.2728 36.3219 23.1425 36.3219C24.0121 36.3219 24.8653 36.5597 25.6095 37.0097C26.0067 37.2499 26.3649 37.5456 26.6739 37.8862C27.1735 38.4368 27.8305 38.8747 28.574 38.8747H36.738C37.4807 38.8747 38.1372 38.4377 38.6367 37.8881C38.9458 37.5479 39.3038 37.2527 39.7009 37.0129C40.4446 36.5638 41.2969 36.3264 42.1657 36.3264C43.0345 36.3264 43.8868 36.5638 44.6306 37.0129C45.0802 37.2844 45.4798 37.6271 45.8149 38.0255C46.2207 38.508 46.7804 38.8747 47.4108 38.8747V38.8747C48.3484 38.8747 49.1084 38.1146 49.1084 37.1771V35.7487C49.1084 34.6441 48.213 33.7487 47.1084 33.7487H30.7095Z" fill="#FFC021"/>
<path d="M47.4773 18.6667H30.6689V33.7204H47.4773V18.6667Z" fill="#F48462"/>
<path d="M23.3117 29.5862C23.6304 29.5837 23.9353 29.4556 24.1602 29.2298C24.3852 29.0039 24.512 28.6985 24.5133 28.3798V23.5781C24.512 23.2598 24.385 22.9549 24.1599 22.7298C23.9349 22.5047 23.63 22.3777 23.3117 22.3765H21.595C21.2448 22.3932 20.9059 22.5063 20.6157 22.7031C20.3254 22.9 20.0951 23.173 19.95 23.4923L17.9902 28.4561C17.9236 28.5792 17.8921 28.7182 17.8992 28.858C17.9063 28.9978 17.9517 29.1329 18.0305 29.2486C18.1093 29.3643 18.2183 29.4562 18.3458 29.514C18.4733 29.5719 18.6142 29.5935 18.7531 29.5766L23.3117 29.5862Z" fill="#40507F"/>
<path d="M23.3112 29.9198H18.7527C18.5593 29.9356 18.3652 29.8998 18.1902 29.8161C18.0151 29.7324 17.8654 29.6037 17.7564 29.4432C17.6473 29.2828 17.5827 29.0963 17.5693 28.9027C17.5558 28.7091 17.594 28.5155 17.6798 28.3415L19.6396 23.3728C19.8081 22.9902 20.0808 22.6626 20.4264 22.4274C20.7721 22.1922 21.1769 22.0588 21.5946 22.0425H23.3112C23.7181 22.0437 24.1079 22.2059 24.3955 22.4936C24.6832 22.7813 24.8454 23.1711 24.8466 23.5779V28.3796C24.8466 28.7872 24.685 29.1783 24.3972 29.467C24.1094 29.7557 23.7189 29.9185 23.3112 29.9198V29.9198ZM21.5946 22.7339C21.311 22.7503 21.0372 22.8432 20.8021 23.0027C20.567 23.1622 20.3795 23.3824 20.2595 23.6399L18.2997 28.6132C18.2509 28.6869 18.2258 28.7737 18.2276 28.862C18.2295 28.9503 18.2583 29.036 18.3101 29.1075C18.3619 29.1791 18.4344 29.2331 18.5177 29.2623C18.6011 29.2916 18.6914 29.2947 18.7766 29.2713H23.3351C23.5652 29.2713 23.786 29.1798 23.9487 29.0171C24.1115 28.8543 24.2029 28.6336 24.2029 28.4034V23.5779C24.2017 23.3481 24.1098 23.1281 23.9474 22.9656C23.7849 22.8031 23.5649 22.7113 23.3351 22.7101L21.5946 22.7339Z" fill="#F48462"/>
<path d="M44.9593 43.8748C46.5012 42.3329 46.5012 39.8331 44.9593 38.2912C43.4175 36.7494 40.9176 36.7494 39.3758 38.2912C37.8339 39.8331 37.8339 42.3329 39.3758 43.8748C40.9176 45.4166 43.4175 45.4166 44.9593 43.8748Z" fill="#231F20"/>
<path d="M42.1658 45.2692C41.3378 45.2692 40.5284 45.0236 39.8399 44.5636C39.1514 44.1036 38.6148 43.4497 38.2979 42.6847C37.9811 41.9197 37.8982 41.078 38.0597 40.2658C38.2212 39.4537 38.62 38.7077 39.2055 38.1222C39.791 37.5367 40.537 37.138 41.3491 36.9764C42.1612 36.8149 43.003 36.8978 43.768 37.2147C44.533 37.5316 45.1868 38.0682 45.6469 38.7566C46.1069 39.4451 46.3524 40.2546 46.3524 41.0826C46.3512 42.1926 45.9097 43.2567 45.1248 44.0416C44.34 44.8264 43.2758 45.2679 42.1658 45.2692V45.2692ZM42.1658 37.3728C41.4321 37.3728 40.7149 37.5904 40.1048 37.998C39.4947 38.4057 39.0193 38.9851 38.7385 39.6629C38.4577 40.3408 38.3842 41.0867 38.5274 41.8063C38.6705 42.5259 39.0238 43.187 39.5427 43.7058C40.0615 44.2246 40.7225 44.5779 41.4421 44.7211C42.1617 44.8642 42.9076 44.7907 43.5855 44.51C44.2634 44.2292 44.8428 43.7537 45.2504 43.1436C45.658 42.5336 45.8756 41.8163 45.8756 41.0826C45.8743 40.0991 45.4831 39.1562 44.7877 38.4608C44.0922 37.7653 43.1493 37.3741 42.1658 37.3728V37.3728Z" fill="#231F20"/>
<path d="M42.1659 43.0852C41.7687 43.0852 41.3803 42.9674 41.0501 42.7466C40.7199 42.5258 40.4626 42.212 40.3108 41.8449C40.159 41.4778 40.1195 41.0739 40.1974 40.6844C40.2752 40.2948 40.4669 39.9371 40.7481 39.6566C41.0293 39.376 41.3875 39.1852 41.7772 39.1083C42.1669 39.0314 42.5707 39.0718 42.9374 39.2245C43.3042 39.3772 43.6174 39.6352 43.8374 39.966C44.0574 40.2967 44.1743 40.6853 44.1734 41.0825C44.1721 41.6141 43.9601 42.1235 43.5837 42.499C43.2074 42.8744 42.6975 43.0852 42.1659 43.0852V43.0852Z" fill="#FFC021"/>
<path d="M42.1658 43.3238C41.7214 43.3238 41.287 43.192 40.9176 42.945C40.5481 42.698 40.2603 42.3469 40.0904 41.9363C39.9206 41.5256 39.8764 41.0738 39.9634 40.638C40.0505 40.2022 40.2648 39.8021 40.5794 39.4882C40.894 39.1743 41.2946 38.9607 41.7306 38.8746C42.1666 38.7885 42.6183 38.8336 43.0286 39.0044C43.4389 39.1751 43.7893 39.4637 44.0355 39.8336C44.2817 40.2036 44.4126 40.6383 44.4117 41.0827C44.4092 41.6771 44.1716 42.2464 43.7508 42.6663C43.33 43.0862 42.7602 43.3225 42.1658 43.3238V43.3238ZM42.1658 39.3136C41.8159 39.3136 41.4739 39.4174 41.183 39.6118C40.8921 39.8062 40.6653 40.0824 40.5314 40.4057C40.3975 40.729 40.3625 41.0847 40.4307 41.4278C40.499 41.771 40.6675 42.0862 40.9149 42.3336C41.1623 42.581 41.4775 42.7495 41.8207 42.8177C42.1638 42.886 42.5195 42.851 42.8428 42.7171C43.166 42.5832 43.4423 42.3564 43.6367 42.0655C43.8311 41.7746 43.9348 41.4326 43.9348 41.0827C43.9336 40.6139 43.7468 40.1647 43.4153 39.8332C43.0838 39.5017 42.6346 39.3149 42.1658 39.3136V39.3136Z" fill="#F2A416"/>
<path d="M27.0736 41.0825C27.0746 41.8647 26.8434 42.6296 26.4094 43.2804C25.9754 43.9312 25.3581 44.4386 24.6356 44.7383C23.9131 45.0381 23.1179 45.1168 22.3507 44.9644C21.5834 44.8121 20.8786 44.4355 20.3255 43.8824C19.7724 43.3293 19.3958 42.6245 19.2434 41.8572C19.0911 41.09 19.1698 40.2948 19.4695 39.5723C19.7693 38.8498 20.2767 38.2325 20.9275 37.7985C21.5783 37.3645 22.3432 37.1333 23.1254 37.1343C24.1726 37.1343 25.1768 37.5502 25.9172 38.2907C26.6577 39.0311 27.0736 40.0353 27.0736 41.0825Z" fill="#231F20"/>
<path d="M23.1258 45.2692C22.2978 45.2692 21.4883 45.0236 20.7999 44.5636C20.1114 44.1036 19.5748 43.4497 19.2579 42.6847C18.941 41.9197 18.8581 41.078 19.0197 40.2658C19.1812 39.4537 19.5799 38.7077 20.1654 38.1222C20.7509 37.5367 21.4969 37.138 22.309 36.9764C23.1212 36.8149 23.9629 36.8978 24.7279 37.2147C25.4929 37.5316 26.1468 38.0682 26.6068 38.7566C27.0669 39.4451 27.3124 40.2546 27.3124 41.0826C27.3111 42.1926 26.8696 43.2567 26.0848 44.0416C25.2999 44.8264 24.2358 45.2679 23.1258 45.2692V45.2692ZM23.1258 37.3728C22.3921 37.3728 21.6748 37.5904 21.0648 37.998C20.4547 38.4057 19.9792 38.9851 19.6984 39.6629C19.4176 40.3408 19.3442 41.0867 19.4873 41.8063C19.6305 42.5259 19.9838 43.187 20.5026 43.7058C21.0214 44.2246 21.6824 44.5779 22.4021 44.7211C23.1217 44.8642 23.8676 44.7907 24.5455 44.51C25.2233 44.2292 25.8027 43.7537 26.2104 43.1436C26.618 42.5336 26.8356 41.8163 26.8356 41.0826C26.833 40.0995 26.4414 39.1573 25.7462 38.4622C25.051 37.767 24.1089 37.3754 23.1258 37.3728V37.3728Z" fill="#231F20"/>
<path d="M23.1259 43.0852C22.7286 43.0852 22.3403 42.9674 22.0101 42.7466C21.6799 42.5258 21.4226 42.212 21.2708 41.8449C21.119 41.4778 21.0795 41.0739 21.1573 40.6844C21.2352 40.2948 21.4268 39.9371 21.7081 39.6566C21.9893 39.376 22.3474 39.1852 22.7372 39.1083C23.1269 39.0314 23.5307 39.0718 23.8974 39.2245C24.2641 39.3772 24.5773 39.6352 24.7973 39.966C25.0173 40.2967 25.1343 40.6853 25.1333 41.0825C25.1321 41.6141 24.92 42.1235 24.5437 42.499C24.1673 42.8744 23.6575 43.0852 23.1259 43.0852V43.0852Z" fill="#FFC021"/>
<path d="M23.1258 43.3238C22.6814 43.3238 22.247 43.192 21.8775 42.945C21.5081 42.698 21.2202 42.3469 21.0504 41.9363C20.8805 41.5256 20.8363 41.0738 20.9234 40.638C21.0104 40.2022 21.2248 39.8021 21.5394 39.4882C21.8539 39.1743 22.2546 38.9607 22.6905 38.8746C23.1265 38.7885 23.5782 38.8336 23.9885 39.0044C24.3988 39.1751 24.7493 39.4637 24.9955 39.8336C25.2417 40.2036 25.3726 40.6383 25.3716 41.0827C25.3704 41.6775 25.1332 42.2475 24.7122 42.6677C24.2911 43.0878 23.7206 43.3238 23.1258 43.3238ZM23.1258 39.3136C22.7759 39.3136 22.4338 39.4174 22.1429 39.6118C21.852 39.8062 21.6253 40.0824 21.4914 40.4057C21.3575 40.729 21.3224 41.0847 21.3907 41.4278C21.459 41.771 21.6275 42.0862 21.8749 42.3336C22.1223 42.581 22.4375 42.7495 22.7806 42.8177C23.1238 42.886 23.4795 42.851 23.8028 42.7171C24.126 42.5832 24.4023 42.3564 24.5967 42.0655C24.7911 41.7746 24.8948 41.4326 24.8948 41.0827C24.8948 40.6135 24.7084 40.1635 24.3767 39.8318C24.0449 39.5 23.5949 39.3136 23.1258 39.3136V39.3136Z" fill="#F2A416"/>
<path d="M30.6693 18.6667H29.6584V33.7204H30.6693V18.6667Z" fill="#F27729"/>
<path d="M32.6476 18.6667H31.6367V33.7204H32.6476V18.6667Z" fill="#F27729"/>
<path d="M34.6269 18.6667H33.616V33.7204H34.6269V18.6667Z" fill="#F27729"/>
<path d="M36.6105 18.6667H35.5996V33.7204H36.6105V18.6667Z" fill="#F27729"/>
<path d="M38.5897 18.6667H37.5789V33.7204H38.5897V18.6667Z" fill="#F27729"/>
<path d="M40.5685 18.6667H39.5576V33.7204H40.5685V18.6667Z" fill="#F27729"/>
<path d="M42.547 18.6667H41.5361V33.7204H42.547V18.6667Z" fill="#F27729"/>
<path d="M44.5263 18.6667H43.5154V33.7204H44.5263V18.6667Z" fill="#F27729"/>
<path d="M46.5097 18.6667H45.4988V33.7204H46.5097V18.6667Z" fill="#F27729"/>
<path d="M48.4887 18.6667H47.4778V33.7204H48.4887V18.6667Z" fill="#F27729"/>
</svg>
