<svg width="144" height="36" viewBox="0 0 144 36" fill="none" xmlns="http://www.w3.org/2000/svg">
<path fill-rule="evenodd" clip-rule="evenodd" d="M42.3389 36C38.1257 36 34.0956 33.7298 31.4864 30.6288C28.5131 27.1042 27.0645 22.549 27.0645 18.0441C27.0645 13.7154 28.3953 9.36079 31.1469 5.91028C33.8601 2.52272 37.9425 0.100703 42.4821 0.100703C46.6561 0.100703 50.66 2.39758 53.23 5.45861C56.191 8.98464 57.665 13.5517 57.665 18.0574C57.665 22.3727 56.3211 26.7273 53.5818 30.1778C50.8956 33.5395 46.8385 36 42.3389 36ZM0 0.841154H12.6914V1.19139H9.57414L19.0436 26.1364L27.0391 1.19139H23.8957V0.841154H30.7436V1.19139H27.7172L16.4482 35.6727L3.33967 1.19139H0V0.841154ZM85.4476 0.238424V12.2219H85.1605C84.6256 9.86281 83.869 7.56667 82.552 5.48378C80.9872 3.04918 78.4958 0.314694 75.2477 0.314694C67.7871 0.314694 67.109 13.1763 67.109 18.0826C67.109 22.4749 67.4739 27.0043 69.1302 31.1197C70.2909 34.006 71.9734 35.4232 75.0914 35.4232C77.5691 35.4232 80.2045 34.2185 81.5214 32.1474C81.8608 31.6076 81.887 31.0064 81.887 30.3918V21.1303H78.6266V20.7674H90.5614V21.1303H87.7697V34.9834H87.5234C86.8184 33.8542 85.7093 33.1137 84.2884 33.1137C83.2571 33.1137 82.2526 33.4654 81.3544 33.9423L80.5455 34.3688C78.719 35.147 76.9703 35.7105 74.9491 35.7105C65.6889 35.7105 60.7583 26.212 60.7583 18.3328C60.7583 12.5729 63.0412 6.41157 67.8933 2.81075C70.0715 1.19138 72.7062 0 75.5102 0C76.6062 0 77.6884 0.325801 78.7059 0.715278L79.4502 0.991462C80.2984 1.29283 81.2243 1.58086 82.1364 1.58086C83.2717 1.58086 84.2892 0.865586 85.1628 0.238424H85.4476ZM89.0089 0.841154H101.739V1.19213H98.3606V27.7817C98.3606 31.9468 102.821 34.4821 106.72 34.4821C110.92 34.4821 114.455 31.6721 114.455 27.5433V1.19139H110.465V0.840414H143.321V13.1748H143.073C142.695 9.91242 142.042 6.56188 139.707 4.01472C137.348 1.4424 134.138 1.19139 130.838 1.19139H127.279V17.0526C128.007 17.1274 128.752 17.1777 129.496 17.1777C133.969 17.1777 135.13 14.2167 135.326 10.5522H135.652V24.4675H135.326C134.765 21.1428 133.239 17.5791 129.182 17.5791C128.543 17.5791 127.917 17.6168 127.279 17.6672V34.6316H132.612C135.379 34.6316 138.13 33.4773 140.087 31.621C141.756 30.0401 142.918 27.9824 143.322 25.761C143.543 24.5186 143.648 23.2516 143.713 21.9966H144V34.9834H118.318V34.6316H121.305V1.19139H114.991V27.6433C114.991 33.113 109.591 35.535 104.531 35.535C98.8055 35.535 92.491 32.8627 92.491 26.5629V1.19139H89.0097L89.0089 0.841154Z" fill="#C9977A"/>
<path fill-rule="evenodd" clip-rule="evenodd" d="M51.2211 18.0442C51.2211 13.0625 49.3692 0.614746 42.3651 0.614746C35.3348 0.614746 33.5083 13.0499 33.5083 18.0442C33.5083 23.0378 35.3479 35.4856 42.3651 35.4856C49.3692 35.4848 51.2211 23.026 51.2211 18.0442Z" fill="#FFF1F4"/>
</svg>
